<svg width="287" height="335" viewBox="0 0 287 335" fill="none" xmlns="http://www.w3.org/2000/svg">
<g filter="url(#filter0_d_401_13895)">
<rect x="74" y="70" width="163" height="187" rx="20" fill="#FFE9D0"/>
</g>
<g filter="url(#filter1_b_401_13895)">
<rect x="121" y="95" width="69" height="69" rx="21" fill="white" fill-opacity="0.5"/>
<rect x="120.5" y="94.5" width="70" height="70" rx="21.5" stroke="#FFF5EA"/>
</g>
<rect x="129" y="103" width="53" height="53" rx="14" fill="white"/>
<g clip-path="url(#clip0_401_13895)">
<path d="M147.092 133.338L145.978 137.496L141.907 137.582C140.69 135.326 140 132.744 140 130C140 127.347 140.645 124.845 141.789 122.642H141.79L145.414 123.306L147.002 126.909C146.67 127.878 146.489 128.918 146.489 130C146.489 131.174 146.702 132.3 147.092 133.338Z" fill="#FBBB00"/>
<path d="M171.72 127.011C171.904 127.979 172 128.978 172 130C172 131.145 171.88 132.263 171.65 133.34C170.871 137.008 168.836 140.211 166.017 142.477L166.016 142.476L161.451 142.243L160.805 138.21C162.675 137.113 164.137 135.396 164.907 133.34H156.352V127.011H165.032H171.72Z" fill="#518EF8"/>
<path d="M166.015 142.476L166.016 142.477C163.274 144.681 159.791 146 155.999 146C149.906 146 144.609 142.594 141.906 137.582L147.091 133.338C148.443 136.944 151.921 139.511 155.999 139.511C157.752 139.511 159.395 139.037 160.804 138.21L166.015 142.476Z" fill="#28B446"/>
<path d="M166.213 117.684L161.03 121.927C159.571 121.015 157.847 120.489 156 120.489C151.83 120.489 148.286 123.174 147.002 126.909L141.79 122.642H141.789C144.452 117.508 149.816 114 156 114C159.882 114 163.442 115.383 166.213 117.684Z" fill="#F14336"/>
</g>
<path d="M113.478 186.96V189.7H107.758V192.66H112.038V195.32H107.758V201H104.338V186.96H113.478ZM118.695 191.7C119.095 191.087 119.595 190.607 120.195 190.26C120.795 189.9 121.462 189.72 122.195 189.72V193.34H121.255C120.402 193.34 119.762 193.527 119.335 193.9C118.908 194.26 118.695 194.9 118.695 195.82V201H115.275V189.84H118.695V191.7ZM128.91 201.16C127.817 201.16 126.83 200.927 125.95 200.46C125.083 199.993 124.397 199.327 123.89 198.46C123.397 197.593 123.15 196.58 123.15 195.42C123.15 194.273 123.403 193.267 123.91 192.4C124.417 191.52 125.11 190.847 125.99 190.38C126.87 189.913 127.857 189.68 128.95 189.68C130.043 189.68 131.03 189.913 131.91 190.38C132.79 190.847 133.483 191.52 133.99 192.4C134.497 193.267 134.75 194.273 134.75 195.42C134.75 196.567 134.49 197.58 133.97 198.46C133.463 199.327 132.763 199.993 131.87 200.46C130.99 200.927 130.003 201.16 128.91 201.16ZM128.91 198.2C129.563 198.2 130.117 197.96 130.57 197.48C131.037 197 131.27 196.313 131.27 195.42C131.27 194.527 131.043 193.84 130.59 193.36C130.15 192.88 129.603 192.64 128.95 192.64C128.283 192.64 127.73 192.88 127.29 193.36C126.85 193.827 126.63 194.513 126.63 195.42C126.63 196.313 126.843 197 127.27 197.48C127.71 197.96 128.257 198.2 128.91 198.2ZM143.364 189.72C144.671 189.72 145.711 190.147 146.484 191C147.271 191.84 147.664 193 147.664 194.48V201H144.264V194.94C144.264 194.193 144.071 193.613 143.684 193.2C143.298 192.787 142.778 192.58 142.124 192.58C141.471 192.58 140.951 192.787 140.564 193.2C140.178 193.613 139.984 194.193 139.984 194.94V201H136.564V189.84H139.984V191.32C140.331 190.827 140.798 190.44 141.384 190.16C141.971 189.867 142.631 189.72 143.364 189.72ZM156.261 198.1V201H154.521C153.281 201 152.314 200.7 151.621 200.1C150.927 199.487 150.581 198.493 150.581 197.12V192.68H149.221V189.84H150.581V187.12H154.001V189.84H156.241V192.68H154.001V197.16C154.001 197.493 154.081 197.733 154.241 197.88C154.401 198.027 154.667 198.1 155.041 198.1H156.261ZM166.766 192.56V195.4H157.966V192.56H166.766ZM180.287 195.24C180.287 195.56 180.267 195.893 180.227 196.24H172.487C172.541 196.933 172.761 197.467 173.147 197.84C173.547 198.2 174.034 198.38 174.607 198.38C175.461 198.38 176.054 198.02 176.387 197.3H180.027C179.841 198.033 179.501 198.693 179.007 199.28C178.527 199.867 177.921 200.327 177.187 200.66C176.454 200.993 175.634 201.16 174.727 201.16C173.634 201.16 172.661 200.927 171.807 200.46C170.954 199.993 170.287 199.327 169.807 198.46C169.327 197.593 169.087 196.58 169.087 195.42C169.087 194.26 169.321 193.247 169.787 192.38C170.267 191.513 170.934 190.847 171.787 190.38C172.641 189.913 173.621 189.68 174.727 189.68C175.807 189.68 176.767 189.907 177.607 190.36C178.447 190.813 179.101 191.46 179.567 192.3C180.047 193.14 180.287 194.12 180.287 195.24ZM176.787 194.34C176.787 193.753 176.587 193.287 176.187 192.94C175.787 192.593 175.287 192.42 174.687 192.42C174.114 192.42 173.627 192.587 173.227 192.92C172.841 193.253 172.601 193.727 172.507 194.34H176.787ZM188.892 189.72C190.198 189.72 191.238 190.147 192.012 191C192.798 191.84 193.192 193 193.192 194.48V201H189.792V194.94C189.792 194.193 189.598 193.613 189.212 193.2C188.825 192.787 188.305 192.58 187.652 192.58C186.998 192.58 186.478 192.787 186.092 193.2C185.705 193.613 185.512 194.193 185.512 194.94V201H182.092V189.84H185.512V191.32C185.858 190.827 186.325 190.44 186.912 190.16C187.498 189.867 188.158 189.72 188.892 189.72ZM194.888 195.4C194.888 194.253 195.101 193.247 195.528 192.38C195.968 191.513 196.561 190.847 197.308 190.38C198.055 189.913 198.888 189.68 199.808 189.68C200.541 189.68 201.208 189.833 201.808 190.14C202.421 190.447 202.901 190.86 203.248 191.38V186.2H206.668V201H203.248V199.4C202.928 199.933 202.468 200.36 201.868 200.68C201.281 201 200.595 201.16 199.808 201.16C198.888 201.16 198.055 200.927 197.308 200.46C196.561 199.98 195.968 199.307 195.528 198.44C195.101 197.56 194.888 196.547 194.888 195.4ZM203.248 195.42C203.248 194.567 203.008 193.893 202.528 193.4C202.061 192.907 201.488 192.66 200.808 192.66C200.128 192.66 199.548 192.907 199.068 193.4C198.601 193.88 198.368 194.547 198.368 195.4C198.368 196.253 198.601 196.933 199.068 197.44C199.548 197.933 200.128 198.18 200.808 198.18C201.488 198.18 202.061 197.933 202.528 197.44C203.008 196.947 203.248 196.273 203.248 195.42Z" fill="#161925"/>
<path d="M135.389 224.08C135.101 223.525 134.701 223.109 134.189 222.832C133.677 222.544 133.085 222.4 132.413 222.4C131.677 222.4 131.021 222.565 130.445 222.896C129.869 223.227 129.415 223.696 129.085 224.304C128.765 224.912 128.605 225.616 128.605 226.416C128.605 227.216 128.765 227.925 129.085 228.544C129.415 229.152 129.869 229.621 130.445 229.952C131.021 230.283 131.677 230.448 132.413 230.448C133.405 230.448 134.21 230.171 134.829 229.616C135.447 229.061 135.826 228.309 135.965 227.36H131.789V225.904H137.917V227.328C137.799 228.192 137.49 228.987 136.989 229.712C136.498 230.437 135.853 231.019 135.053 231.456C134.263 231.883 133.383 232.096 132.413 232.096C131.367 232.096 130.413 231.856 129.549 231.376C128.685 230.885 127.997 230.208 127.485 229.344C126.983 228.48 126.733 227.504 126.733 226.416C126.733 225.328 126.983 224.352 127.485 223.488C127.997 222.624 128.685 221.952 129.549 221.472C130.423 220.981 131.378 220.736 132.413 220.736C133.597 220.736 134.647 221.029 135.565 221.616C136.493 222.192 137.165 223.013 137.581 224.08H135.389ZM143.54 232.144C142.708 232.144 141.956 231.957 141.284 231.584C140.612 231.2 140.084 230.667 139.7 229.984C139.316 229.291 139.124 228.491 139.124 227.584C139.124 226.688 139.321 225.893 139.716 225.2C140.11 224.507 140.649 223.973 141.332 223.6C142.014 223.227 142.777 223.04 143.62 223.04C144.462 223.04 145.225 223.227 145.908 223.6C146.59 223.973 147.129 224.507 147.524 225.2C147.918 225.893 148.116 226.688 148.116 227.584C148.116 228.48 147.913 229.275 147.508 229.968C147.102 230.661 146.548 231.2 145.844 231.584C145.15 231.957 144.382 232.144 143.54 232.144ZM143.54 230.56C144.009 230.56 144.446 230.448 144.852 230.224C145.268 230 145.604 229.664 145.86 229.216C146.116 228.768 146.244 228.224 146.244 227.584C146.244 226.944 146.121 226.405 145.876 225.968C145.63 225.52 145.305 225.184 144.9 224.96C144.494 224.736 144.057 224.624 143.588 224.624C143.118 224.624 142.681 224.736 142.276 224.96C141.881 225.184 141.566 225.52 141.332 225.968C141.097 226.405 140.98 226.944 140.98 227.584C140.98 228.533 141.22 229.269 141.7 229.792C142.19 230.304 142.804 230.56 143.54 230.56ZM153.743 232.144C152.911 232.144 152.159 231.957 151.487 231.584C150.815 231.2 150.287 230.667 149.903 229.984C149.519 229.291 149.327 228.491 149.327 227.584C149.327 226.688 149.524 225.893 149.919 225.2C150.313 224.507 150.852 223.973 151.535 223.6C152.217 223.227 152.98 223.04 153.823 223.04C154.665 223.04 155.428 223.227 156.111 223.6C156.793 223.973 157.332 224.507 157.727 225.2C158.121 225.893 158.319 226.688 158.319 227.584C158.319 228.48 158.116 229.275 157.711 229.968C157.305 230.661 156.751 231.2 156.047 231.584C155.353 231.957 154.585 232.144 153.743 232.144ZM153.743 230.56C154.212 230.56 154.649 230.448 155.055 230.224C155.471 230 155.807 229.664 156.063 229.216C156.319 228.768 156.447 228.224 156.447 227.584C156.447 226.944 156.324 226.405 156.079 225.968C155.833 225.52 155.508 225.184 155.103 224.96C154.697 224.736 154.26 224.624 153.791 224.624C153.321 224.624 152.884 224.736 152.479 224.96C152.084 225.184 151.769 225.52 151.535 225.968C151.3 226.405 151.183 226.944 151.183 227.584C151.183 228.533 151.423 229.269 151.903 229.792C152.393 230.304 153.007 230.56 153.743 230.56ZM163.674 223.04C164.357 223.04 164.959 223.179 165.482 223.456C166.015 223.723 166.431 224.059 166.73 224.464V223.184H168.57V232.144C168.57 232.955 168.399 233.675 168.058 234.304C167.717 234.944 167.221 235.445 166.57 235.808C165.93 236.171 165.162 236.352 164.266 236.352C163.071 236.352 162.079 236.069 161.29 235.504C160.501 234.949 160.053 234.192 159.946 233.232H161.754C161.893 233.691 162.186 234.059 162.634 234.336C163.093 234.624 163.637 234.768 164.266 234.768C165.002 234.768 165.594 234.544 166.042 234.096C166.501 233.648 166.73 232.997 166.73 232.144V230.672C166.421 231.088 165.999 231.44 165.466 231.728C164.943 232.005 164.346 232.144 163.674 232.144C162.906 232.144 162.202 231.952 161.562 231.568C160.933 231.173 160.431 230.629 160.058 229.936C159.695 229.232 159.514 228.437 159.514 227.552C159.514 226.667 159.695 225.883 160.058 225.2C160.431 224.517 160.933 223.989 161.562 223.616C162.202 223.232 162.906 223.04 163.674 223.04ZM166.73 227.584C166.73 226.976 166.602 226.448 166.346 226C166.101 225.552 165.775 225.211 165.37 224.976C164.965 224.741 164.527 224.624 164.058 224.624C163.589 224.624 163.151 224.741 162.746 224.976C162.341 225.2 162.01 225.536 161.754 225.984C161.509 226.421 161.386 226.944 161.386 227.552C161.386 228.16 161.509 228.693 161.754 229.152C162.01 229.611 162.341 229.963 162.746 230.208C163.162 230.443 163.599 230.56 164.058 230.56C164.527 230.56 164.965 230.443 165.37 230.208C165.775 229.973 166.101 229.632 166.346 229.184C166.602 228.725 166.73 228.192 166.73 227.584ZM172.79 220.16V232H170.966V220.16H172.79ZM183.264 227.376C183.264 227.707 183.243 228.005 183.2 228.272H176.464C176.518 228.976 176.779 229.541 177.248 229.968C177.718 230.395 178.294 230.608 178.976 230.608C179.958 230.608 180.651 230.197 181.056 229.376H183.024C182.758 230.187 182.272 230.853 181.568 231.376C180.875 231.888 180.011 232.144 178.976 232.144C178.134 232.144 177.376 231.957 176.704 231.584C176.043 231.2 175.52 230.667 175.136 229.984C174.763 229.291 174.576 228.491 174.576 227.584C174.576 226.677 174.758 225.883 175.12 225.2C175.494 224.507 176.011 223.973 176.672 223.6C177.344 223.227 178.112 223.04 178.976 223.04C179.808 223.04 180.55 223.221 181.2 223.584C181.851 223.947 182.358 224.459 182.72 225.12C183.083 225.771 183.264 226.523 183.264 227.376ZM181.36 226.8C181.35 226.128 181.11 225.589 180.64 225.184C180.171 224.779 179.59 224.576 178.896 224.576C178.267 224.576 177.728 224.779 177.28 225.184C176.832 225.579 176.566 226.117 176.48 226.8H181.36Z" fill="#1E2131"/>
<defs>
<filter id="filter0_d_401_13895" x="0" y="0" width="311" height="335" filterUnits="userSpaceOnUse" color-interpolation-filters="sRGB">
<feFlood flood-opacity="0" result="BackgroundImageFix"/>
<feColorMatrix in="SourceAlpha" type="matrix" values="0 0 0 0 0 0 0 0 0 0 0 0 0 0 0 0 0 0 127 0" result="hardAlpha"/>
<feOffset dy="4"/>
<feGaussianBlur stdDeviation="37"/>
<feColorMatrix type="matrix" values="0 0 0 0 1 0 0 0 0 0.913725 0 0 0 0 0.815686 0 0 0 0.3 0"/>
<feBlend mode="normal" in2="BackgroundImageFix" result="effect1_dropShadow_401_13895"/>
<feBlend mode="normal" in="SourceGraphic" in2="effect1_dropShadow_401_13895" result="shape"/>
</filter>
<filter id="filter1_b_401_13895" x="105" y="79" width="101" height="101" filterUnits="userSpaceOnUse" color-interpolation-filters="sRGB">
<feFlood flood-opacity="0" result="BackgroundImageFix"/>
<feGaussianBlur in="BackgroundImageFix" stdDeviation="7.5"/>
<feComposite in2="SourceAlpha" operator="in" result="effect1_backgroundBlur_401_13895"/>
<feBlend mode="normal" in="SourceGraphic" in2="effect1_backgroundBlur_401_13895" result="shape"/>
</filter>
<clipPath id="clip0_401_13895">
<rect width="32" height="32" fill="white" transform="translate(140 114)"/>
</clipPath>
</defs>
</svg>
