<svg width="130" height="21" viewBox="0 0 130 21" fill="none" xmlns="http://www.w3.org/2000/svg">
<path d="M14.784 6.56C14.4293 5.90667 13.916 5.412 13.244 5.076C12.5907 4.72133 11.816 4.544 10.92 4.544C9.37067 4.544 8.12933 5.05733 7.196 6.084C6.26267 7.092 5.796 8.44533 5.796 10.144C5.796 11.9547 6.28133 13.3733 7.252 14.4C8.24133 15.408 9.59467 15.912 11.312 15.912C12.488 15.912 13.4773 15.6133 14.28 15.016C15.1013 14.4187 15.6987 13.56 16.072 12.44H9.996V8.912H20.412V13.364C20.0573 14.5587 19.4507 15.6693 18.592 16.696C17.752 17.7227 16.6787 18.5533 15.372 19.188C14.0653 19.8227 12.5907 20.14 10.948 20.14C9.00667 20.14 7.27067 19.72 5.74 18.88C4.228 18.0213 3.04267 16.836 2.184 15.324C1.344 13.812 0.924 12.0853 0.924 10.144C0.924 8.20267 1.344 6.476 2.184 4.964C3.04267 3.43333 4.228 2.248 5.74 1.408C7.252 0.549332 8.97867 0.119999 10.92 0.119999C13.272 0.119999 15.2507 0.689332 16.856 1.828C18.48 2.96667 19.5533 4.544 20.076 6.56H14.784ZM33.6481 20L29.5601 12.58H28.4121V20H23.6241V0.343999H31.6601C33.2095 0.343999 34.5255 0.614666 35.6081 1.156C36.7095 1.69733 37.5308 2.444 38.0721 3.396C38.6135 4.32933 38.8841 5.37467 38.8841 6.532C38.8841 7.83867 38.5108 9.00533 37.7641 10.032C37.0361 11.0587 35.9535 11.7867 34.5161 12.216L39.0521 20H33.6481ZM28.4121 9.192H31.3801C32.2575 9.192 32.9108 8.97733 33.3401 8.548C33.7881 8.11867 34.0121 7.512 34.0121 6.728C34.0121 5.98133 33.7881 5.39333 33.3401 4.964C32.9108 4.53467 32.2575 4.32 31.3801 4.32H28.4121V9.192ZM51.7457 20.196C49.8977 20.196 48.1991 19.7667 46.6497 18.908C45.1191 18.0493 43.8964 16.8547 42.9817 15.324C42.0857 13.7747 41.6377 12.0387 41.6377 10.116C41.6377 8.19333 42.0857 6.46667 42.9817 4.936C43.8964 3.40533 45.1191 2.21067 46.6497 1.352C48.1991 0.493333 49.8977 0.0639997 51.7457 0.0639997C53.5937 0.0639997 55.2831 0.493333 56.8138 1.352C58.3631 2.21067 59.5764 3.40533 60.4538 4.936C61.3497 6.46667 61.7977 8.19333 61.7977 10.116C61.7977 12.0387 61.3497 13.7747 60.4538 15.324C59.5577 16.8547 58.3444 18.0493 56.8138 18.908C55.2831 19.7667 53.5937 20.196 51.7457 20.196ZM51.7457 15.828C53.3137 15.828 54.5644 15.3053 55.4977 14.26C56.4497 13.2147 56.9258 11.8333 56.9258 10.116C56.9258 8.38 56.4497 6.99867 55.4977 5.972C54.5644 4.92667 53.3137 4.404 51.7457 4.404C50.1591 4.404 48.8897 4.91733 47.9377 5.944C47.0044 6.97067 46.5377 8.36133 46.5377 10.116C46.5377 11.852 47.0044 13.2427 47.9377 14.288C48.8897 15.3147 50.1591 15.828 51.7457 15.828ZM67.2615 20.224C66.4215 20.224 65.7308 19.9813 65.1895 19.496C64.6668 18.992 64.4055 18.376 64.4055 17.648C64.4055 16.9013 64.6668 16.276 65.1895 15.772C65.7308 15.268 66.4215 15.016 67.2615 15.016C68.0828 15.016 68.7548 15.268 69.2775 15.772C69.8188 16.276 70.0895 16.9013 70.0895 17.648C70.0895 18.376 69.8188 18.992 69.2775 19.496C68.7548 19.9813 68.0828 20.224 67.2615 20.224Z" fill="white"/>
<path d="M88.4638 6.672C88.4638 7.81067 88.2025 8.856 87.6798 9.808C87.1571 10.7413 86.3545 11.4973 85.2718 12.076C84.1891 12.6547 82.8451 12.944 81.2398 12.944H78.2718V20H73.4838V0.343999H81.2398C82.8078 0.343999 84.1331 0.614666 85.2158 1.156C86.2985 1.69733 87.1105 2.444 87.6518 3.396C88.1931 4.348 88.4638 5.44 88.4638 6.672ZM80.8758 9.136C81.7905 9.136 82.4718 8.92133 82.9198 8.492C83.3678 8.06267 83.5918 7.456 83.5918 6.672C83.5918 5.888 83.3678 5.28133 82.9198 4.852C82.4718 4.42267 81.7905 4.208 80.8758 4.208H78.2718V9.136H80.8758ZM101.54 20L97.4525 12.58H96.3045V20H91.5165V0.343999H99.5525C101.102 0.343999 102.418 0.614666 103.5 1.156C104.602 1.69733 105.423 2.444 105.964 3.396C106.506 4.32933 106.776 5.37467 106.776 6.532C106.776 7.83867 106.403 9.00533 105.656 10.032C104.928 11.0587 103.846 11.7867 102.408 12.216L106.944 20H101.54ZM96.3045 9.192H99.2725C100.15 9.192 100.803 8.97733 101.232 8.548C101.68 8.11867 101.904 7.512 101.904 6.728C101.904 5.98133 101.68 5.39333 101.232 4.964C100.803 4.53467 100.15 4.32 99.2725 4.32H96.3045V9.192ZM119.638 20.196C117.79 20.196 116.091 19.7667 114.542 18.908C113.011 18.0493 111.789 16.8547 110.874 15.324C109.978 13.7747 109.53 12.0387 109.53 10.116C109.53 8.19333 109.978 6.46667 110.874 4.936C111.789 3.40533 113.011 2.21067 114.542 1.352C116.091 0.493333 117.79 0.0639997 119.638 0.0639997C121.486 0.0639997 123.175 0.493333 124.706 1.352C126.255 2.21067 127.469 3.40533 128.346 4.936C129.242 6.46667 129.69 8.19333 129.69 10.116C129.69 12.0387 129.242 13.7747 128.346 15.324C127.45 16.8547 126.237 18.0493 124.706 18.908C123.175 19.7667 121.486 20.196 119.638 20.196ZM119.638 15.828C121.206 15.828 122.457 15.3053 123.39 14.26C124.342 13.2147 124.818 11.8333 124.818 10.116C124.818 8.38 124.342 6.99867 123.39 5.972C122.457 4.92667 121.206 4.404 119.638 4.404C118.051 4.404 116.782 4.91733 115.83 5.944C114.897 6.97067 114.43 8.36133 114.43 10.116C114.43 11.852 114.897 13.2427 115.83 14.288C116.782 15.3147 118.051 15.828 119.638 15.828Z" fill="#FF2525"/>
</svg>
