<svg width="78" height="113" viewBox="0 0 78 113" fill="none" xmlns="http://www.w3.org/2000/svg">
<path d="M16 23C16 10.2975 26.2975 0 39 0C51.7025 0 62 10.2974 62 23V34C62 46.7025 51.7025 57 39 57C26.2975 57 16 46.7026 16 34V23Z" fill="#FFBE16"/>
<path d="M3.344 81.224H7.024V83H1.104V71.832H3.344V81.224ZM16.6878 78.376C16.6878 78.696 16.6664 78.984 16.6238 79.24H10.1438C10.1971 79.88 10.4211 80.3813 10.8158 80.744C11.2104 81.1067 11.6958 81.288 12.2718 81.288C13.1038 81.288 13.6958 80.9307 14.0478 80.216H16.4638C16.2078 81.0693 15.7171 81.7733 14.9918 82.328C14.2664 82.872 13.3758 83.144 12.3198 83.144C11.4664 83.144 10.6984 82.9573 10.0158 82.584C9.34375 82.2 8.81575 81.6613 8.43175 80.968C8.05842 80.2747 7.87175 79.4747 7.87175 78.568C7.87175 77.6507 8.05842 76.8453 8.43175 76.152C8.80508 75.4587 9.32775 74.9253 9.99975 74.552C10.6718 74.1787 11.4451 73.992 12.3198 73.992C13.1624 73.992 13.9144 74.1733 14.5758 74.536C15.2478 74.8987 15.7651 75.416 16.1278 76.088C16.5011 76.7493 16.6878 77.512 16.6878 78.376ZM14.3678 77.736C14.3571 77.16 14.1491 76.7013 13.7438 76.36C13.3384 76.008 12.8424 75.832 12.2558 75.832C11.7011 75.832 11.2318 76.0027 10.8478 76.344C10.4744 76.6747 10.2451 77.1387 10.1598 77.736H14.3678ZM20.9308 75.976V80.264C20.9308 80.5627 21.0001 80.7813 21.1388 80.92C21.2881 81.048 21.5334 81.112 21.8748 81.112H22.9148V83H21.5068C19.6188 83 18.6748 82.0827 18.6748 80.248V75.976H17.6188V74.136H18.6748V71.944H20.9308V74.136H22.9148V75.976H20.9308ZM24.9739 71.832H27.3259L25.5979 75.864H24.0619L24.9739 71.832ZM32.3241 83.144C31.5988 83.144 30.9481 83.016 30.3721 82.76C29.7961 82.4933 29.3375 82.136 28.9961 81.688C28.6655 81.24 28.4841 80.744 28.4521 80.2H30.7081C30.7508 80.5413 30.9161 80.824 31.2041 81.048C31.5028 81.272 31.8708 81.384 32.3081 81.384C32.7348 81.384 33.0655 81.2987 33.3001 81.128C33.5455 80.9573 33.6681 80.7387 33.6681 80.472C33.6681 80.184 33.5188 79.9707 33.2201 79.832C32.9321 79.6827 32.4681 79.5227 31.8281 79.352C31.1668 79.192 30.6228 79.0267 30.1961 78.856C29.7801 78.6853 29.4175 78.424 29.1081 78.072C28.8095 77.72 28.6601 77.2453 28.6601 76.648C28.6601 76.1573 28.7988 75.7093 29.0761 75.304C29.3641 74.8987 29.7695 74.5787 30.2921 74.344C30.8255 74.1093 31.4495 73.992 32.1641 73.992C33.2201 73.992 34.0628 74.2587 34.6921 74.792C35.3215 75.3147 35.6681 76.024 35.7321 76.92H33.5881C33.5561 76.568 33.4068 76.2907 33.1401 76.088C32.8841 75.8747 32.5375 75.768 32.1001 75.768C31.6948 75.768 31.3801 75.8427 31.1561 75.992C30.9428 76.1413 30.8361 76.3493 30.8361 76.616C30.8361 76.9147 30.9855 77.144 31.2841 77.304C31.5828 77.4533 32.0468 77.608 32.6761 77.768C33.3161 77.928 33.8441 78.0933 34.2601 78.264C34.6761 78.4347 35.0335 78.7013 35.3321 79.064C35.6415 79.416 35.8015 79.8853 35.8121 80.472C35.8121 80.984 35.6681 81.4427 35.3801 81.848C35.1028 82.2533 34.6975 82.5733 34.1641 82.808C33.6415 83.032 33.0281 83.144 32.3241 83.144ZM40.8874 78.568C40.8874 77.6507 41.074 76.8507 41.4474 76.168C41.8207 75.4747 42.338 74.9413 42.9994 74.568C43.6607 74.184 44.418 73.992 45.2714 73.992C46.37 73.992 47.2767 74.2693 47.9914 74.824C48.7167 75.368 49.202 76.136 49.4474 77.128H47.0314C46.9034 76.744 46.6847 76.4453 46.3754 76.232C46.0767 76.008 45.7034 75.896 45.2554 75.896C44.6154 75.896 44.1087 76.1307 43.7354 76.6C43.362 77.0587 43.1754 77.7147 43.1754 78.568C43.1754 79.4107 43.362 80.0667 43.7354 80.536C44.1087 80.9947 44.6154 81.224 45.2554 81.224C46.162 81.224 46.754 80.8187 47.0314 80.008H49.4474C49.202 80.968 48.7167 81.7307 47.9914 82.296C47.266 82.8613 46.3594 83.144 45.2714 83.144C44.418 83.144 43.6607 82.9573 42.9994 82.584C42.338 82.2 41.8207 81.6667 41.4474 80.984C41.074 80.2907 40.8874 79.4853 40.8874 78.568ZM56.0804 74.008C56.7524 74.008 57.3497 74.1573 57.8724 74.456C58.395 74.744 58.8004 75.176 59.0884 75.752C59.387 76.3173 59.5364 77 59.5364 77.8V83H57.2964V78.104C57.2964 77.4 57.1204 76.8613 56.7684 76.488C56.4164 76.104 55.9364 75.912 55.3284 75.912C54.7097 75.912 54.219 76.104 53.8564 76.488C53.5044 76.8613 53.3284 77.4 53.3284 78.104V83H51.0884V71.16H53.3284V75.24C53.6164 74.856 54.0004 74.5573 54.4804 74.344C54.9604 74.12 55.4937 74.008 56.0804 74.008ZM61.0905 78.536C61.0905 77.64 61.2665 76.8453 61.6185 76.152C61.9812 75.4587 62.4665 74.9253 63.0745 74.552C63.6932 74.1787 64.3812 73.992 65.1385 73.992C65.7998 73.992 66.3758 74.1253 66.8665 74.392C67.3678 74.6587 67.7678 74.9947 68.0665 75.4V74.136H70.3225V83H68.0665V81.704C67.7785 82.12 67.3785 82.4667 66.8665 82.744C66.3652 83.0107 65.7838 83.144 65.1225 83.144C64.3758 83.144 63.6932 82.952 63.0745 82.568C62.4665 82.184 61.9812 81.6453 61.6185 80.952C61.2665 80.248 61.0905 79.4427 61.0905 78.536ZM68.0665 78.568C68.0665 78.024 67.9598 77.56 67.7465 77.176C67.5332 76.7813 67.2452 76.4827 66.8825 76.28C66.5198 76.0667 66.1305 75.96 65.7145 75.96C65.2985 75.96 64.9145 76.0613 64.5625 76.264C64.2105 76.4667 63.9225 76.7653 63.6985 77.16C63.4852 77.544 63.3785 78.0027 63.3785 78.536C63.3785 79.0693 63.4852 79.5387 63.6985 79.944C63.9225 80.3387 64.2105 80.6427 64.5625 80.856C64.9252 81.0693 65.3092 81.176 65.7145 81.176C66.1305 81.176 66.5198 81.0747 66.8825 80.872C67.2452 80.6587 67.5332 80.36 67.7465 79.976C67.9598 79.5813 68.0665 79.112 68.0665 78.568ZM75.1183 75.976V80.264C75.1183 80.5627 75.1876 80.7813 75.3263 80.92C75.4756 81.048 75.7209 81.112 76.0623 81.112H77.1023V83H75.6943C73.8063 83 72.8623 82.0827 72.8623 80.248V75.976H71.8063V74.136H72.8623V71.944H75.1183V74.136H77.1023V75.976H75.1183ZM13.392 98.136L10.8 107H8.384L6.768 100.808L5.152 107H2.72L0.112 98.136H2.384L3.952 104.888L5.648 98.136H8.016L9.68 104.872L11.248 98.136H13.392ZM15.74 97.08C15.3453 97.08 15.0147 96.9573 14.748 96.712C14.492 96.456 14.364 96.1413 14.364 95.768C14.364 95.3947 14.492 95.0853 14.748 94.84C15.0147 94.584 15.3453 94.456 15.74 94.456C16.1347 94.456 16.46 94.584 16.716 94.84C16.9827 95.0853 17.116 95.3947 17.116 95.768C17.116 96.1413 16.9827 96.456 16.716 96.712C16.46 96.9573 16.1347 97.08 15.74 97.08ZM16.844 98.136V107H14.604V98.136H16.844ZM21.6651 99.976V104.264C21.6651 104.563 21.7345 104.781 21.8731 104.92C22.0225 105.048 22.2678 105.112 22.6091 105.112H23.6491V107H22.2411C20.3531 107 19.4091 106.083 19.4091 104.248V99.976H18.3531V98.136H19.4091V95.944H21.6651V98.136H23.6491V99.976H21.6651ZM30.2523 98.008C30.9243 98.008 31.5216 98.1573 32.0443 98.456C32.5669 98.744 32.9723 99.176 33.2603 99.752C33.5589 100.317 33.7083 101 33.7083 101.8V107H31.4683V102.104C31.4683 101.4 31.2923 100.861 30.9403 100.488C30.5883 100.104 30.1083 99.912 29.5003 99.912C28.8816 99.912 28.3909 100.104 28.0283 100.488C27.6763 100.861 27.5003 101.4 27.5003 102.104V107H25.2603V95.16H27.5003V99.24C27.7883 98.856 28.1723 98.5573 28.6523 98.344C29.1323 98.12 29.6656 98.008 30.2523 98.008ZM48.0189 98.136V107H45.7629V105.88C45.4749 106.264 45.0962 106.568 44.6269 106.792C44.1682 107.005 43.6669 107.112 43.1229 107.112C42.4295 107.112 41.8162 106.968 41.2829 106.68C40.7495 106.381 40.3282 105.949 40.0189 105.384C39.7202 104.808 39.5709 104.125 39.5709 103.336V98.136H41.8109V103.016C41.8109 103.72 41.9869 104.264 42.3389 104.648C42.6909 105.021 43.1709 105.208 43.7789 105.208C44.3975 105.208 44.8829 105.021 45.2349 104.648C45.5869 104.264 45.7629 103.72 45.7629 103.016V98.136H48.0189ZM53.621 107.144C52.8957 107.144 52.245 107.016 51.669 106.76C51.093 106.493 50.6343 106.136 50.293 105.688C49.9623 105.24 49.781 104.744 49.749 104.2H52.005C52.0477 104.541 52.213 104.824 52.501 105.048C52.7997 105.272 53.1677 105.384 53.605 105.384C54.0317 105.384 54.3623 105.299 54.597 105.128C54.8423 104.957 54.965 104.739 54.965 104.472C54.965 104.184 54.8157 103.971 54.517 103.832C54.229 103.683 53.765 103.523 53.125 103.352C52.4637 103.192 51.9197 103.027 51.493 102.856C51.077 102.685 50.7143 102.424 50.405 102.072C50.1063 101.72 49.957 101.245 49.957 100.648C49.957 100.157 50.0957 99.7093 50.373 99.304C50.661 98.8987 51.0663 98.5787 51.589 98.344C52.1223 98.1093 52.7463 97.992 53.461 97.992C54.517 97.992 55.3597 98.2587 55.989 98.792C56.6183 99.3147 56.965 100.024 57.029 100.92H54.885C54.853 100.568 54.7037 100.291 54.437 100.088C54.181 99.8747 53.8343 99.768 53.397 99.768C52.9917 99.768 52.677 99.8427 52.453 99.992C52.2397 100.141 52.133 100.349 52.133 100.616C52.133 100.915 52.2823 101.144 52.581 101.304C52.8797 101.453 53.3437 101.608 53.973 101.768C54.613 101.928 55.141 102.093 55.557 102.264C55.973 102.435 56.3303 102.701 56.629 103.064C56.9383 103.416 57.0983 103.885 57.109 104.472C57.109 104.984 56.965 105.443 56.677 105.848C56.3997 106.253 55.9943 106.573 55.461 106.808C54.9383 107.032 54.325 107.144 53.621 107.144ZM61.8438 95.64L61.5878 103.368H59.6998L59.4278 95.64H61.8438ZM60.6918 107.112C60.2864 107.112 59.9504 106.989 59.6838 106.744C59.4278 106.488 59.2998 106.173 59.2998 105.8C59.2998 105.427 59.4278 105.117 59.6838 104.872C59.9504 104.616 60.2864 104.488 60.6918 104.488C61.0864 104.488 61.4118 104.616 61.6678 104.872C61.9238 105.117 62.0518 105.427 62.0518 105.8C62.0518 106.173 61.9238 106.488 61.6678 106.744C61.4118 106.989 61.0864 107.112 60.6918 107.112Z" fill="white"/>
<path d="M43 28L35.5 23.6699L35.5 32.3301L43 28ZM6.55671e-08 28.75L36.25 28.75L36.25 27.25L-6.55671e-08 27.25L6.55671e-08 28.75Z" fill="white"/>
</svg>
