<svg width="131" height="42" viewBox="0 0 131 42" fill="none" xmlns="http://www.w3.org/2000/svg">
<path d="M14.784 17.56C14.4293 16.9067 13.916 16.412 13.244 16.076C12.5907 15.7213 11.816 15.544 10.92 15.544C9.37067 15.544 8.12933 16.0573 7.196 17.084C6.26267 18.092 5.796 19.4453 5.796 21.144C5.796 22.9547 6.28133 24.3733 7.252 25.4C8.24133 26.408 9.59467 26.912 11.312 26.912C12.488 26.912 13.4773 26.6133 14.28 26.016C15.1013 25.4187 15.6987 24.56 16.072 23.44H9.996V19.912H20.412V24.364C20.0573 25.5587 19.4507 26.6693 18.592 27.696C17.752 28.7227 16.6787 29.5533 15.372 30.188C14.0653 30.8227 12.5907 31.14 10.948 31.14C9.00667 31.14 7.27067 30.72 5.74 29.88C4.228 29.0213 3.04267 27.836 2.184 26.324C1.344 24.812 0.924 23.0853 0.924 21.144C0.924 19.2027 1.344 17.476 2.184 15.964C3.04267 14.4333 4.228 13.248 5.74 12.408C7.252 11.5493 8.97867 11.12 10.92 11.12C13.272 11.12 15.2507 11.6893 16.856 12.828C18.48 13.9667 19.5533 15.544 20.076 17.56H14.784ZM33.6481 31L29.5601 23.58H28.4121V31H23.6241V11.344H31.6601C33.2095 11.344 34.5255 11.6147 35.6081 12.156C36.7095 12.6973 37.5308 13.444 38.0721 14.396C38.6135 15.3293 38.8841 16.3747 38.8841 17.532C38.8841 18.8387 38.5108 20.0053 37.7641 21.032C37.0361 22.0587 35.9535 22.7867 34.5161 23.216L39.0521 31H33.6481ZM28.4121 20.192H31.3801C32.2575 20.192 32.9108 19.9773 33.3401 19.548C33.7881 19.1187 34.0121 18.512 34.0121 17.728C34.0121 16.9813 33.7881 16.3933 33.3401 15.964C32.9108 15.5347 32.2575 15.32 31.3801 15.32H28.4121V20.192ZM51.7457 31.196C49.8977 31.196 48.1991 30.7667 46.6497 29.908C45.1191 29.0493 43.8964 27.8547 42.9817 26.324C42.0857 24.7747 41.6377 23.0387 41.6377 21.116C41.6377 19.1933 42.0857 17.4667 42.9817 15.936C43.8964 14.4053 45.1191 13.2107 46.6497 12.352C48.1991 11.4933 49.8977 11.064 51.7457 11.064C53.5937 11.064 55.2831 11.4933 56.8138 12.352C58.3631 13.2107 59.5764 14.4053 60.4538 15.936C61.3497 17.4667 61.7977 19.1933 61.7977 21.116C61.7977 23.0387 61.3497 24.7747 60.4538 26.324C59.5577 27.8547 58.3444 29.0493 56.8138 29.908C55.2831 30.7667 53.5937 31.196 51.7457 31.196ZM51.7457 26.828C53.3137 26.828 54.5644 26.3053 55.4977 25.26C56.4497 24.2147 56.9258 22.8333 56.9258 21.116C56.9258 19.38 56.4497 17.9987 55.4977 16.972C54.5644 15.9267 53.3137 15.404 51.7457 15.404C50.1591 15.404 48.8897 15.9173 47.9377 16.944C47.0044 17.9707 46.5377 19.3613 46.5377 21.116C46.5377 22.852 47.0044 24.2427 47.9377 25.288C48.8897 26.3147 50.1591 26.828 51.7457 26.828ZM67.2615 31.224C66.4215 31.224 65.7308 30.9813 65.1895 30.496C64.6668 29.992 64.4055 29.376 64.4055 28.648C64.4055 27.9013 64.6668 27.276 65.1895 26.772C65.7308 26.268 66.4215 26.016 67.2615 26.016C68.0828 26.016 68.7548 26.268 69.2775 26.772C69.8188 27.276 70.0895 27.9013 70.0895 28.648C70.0895 29.376 69.8188 29.992 69.2775 30.496C68.7548 30.9813 68.0828 31.224 67.2615 31.224Z" fill="#161925"/>
<path d="M88.4638 17.672C88.4638 18.8107 88.2025 19.856 87.6798 20.808C87.1571 21.7413 86.3545 22.4973 85.2718 23.076C84.1891 23.6547 82.8451 23.944 81.2398 23.944H78.2718V31H73.4838V11.344H81.2398C82.8078 11.344 84.1331 11.6147 85.2158 12.156C86.2985 12.6973 87.1105 13.444 87.6518 14.396C88.1931 15.348 88.4638 16.44 88.4638 17.672ZM80.8758 20.136C81.7905 20.136 82.4718 19.9213 82.9198 19.492C83.3678 19.0627 83.5918 18.456 83.5918 17.672C83.5918 16.888 83.3678 16.2813 82.9198 15.852C82.4718 15.4227 81.7905 15.208 80.8758 15.208H78.2718V20.136H80.8758ZM101.54 31L97.4525 23.58H96.3045V31H91.5165V11.344H99.5525C101.102 11.344 102.418 11.6147 103.5 12.156C104.602 12.6973 105.423 13.444 105.964 14.396C106.506 15.3293 106.776 16.3747 106.776 17.532C106.776 18.8387 106.403 20.0053 105.656 21.032C104.928 22.0587 103.846 22.7867 102.408 23.216L106.944 31H101.54ZM96.3045 20.192H99.2725C100.15 20.192 100.803 19.9773 101.232 19.548C101.68 19.1187 101.904 18.512 101.904 17.728C101.904 16.9813 101.68 16.3933 101.232 15.964C100.803 15.5347 100.15 15.32 99.2725 15.32H96.3045V20.192ZM119.638 31.196C117.79 31.196 116.091 30.7667 114.542 29.908C113.011 29.0493 111.789 27.8547 110.874 26.324C109.978 24.7747 109.53 23.0387 109.53 21.116C109.53 19.1933 109.978 17.4667 110.874 15.936C111.789 14.4053 113.011 13.2107 114.542 12.352C116.091 11.4933 117.79 11.064 119.638 11.064C121.486 11.064 123.175 11.4933 124.706 12.352C126.255 13.2107 127.469 14.4053 128.346 15.936C129.242 17.4667 129.69 19.1933 129.69 21.116C129.69 23.0387 129.242 24.7747 128.346 26.324C127.45 27.8547 126.237 29.0493 124.706 29.908C123.175 30.7667 121.486 31.196 119.638 31.196ZM119.638 26.828C121.206 26.828 122.457 26.3053 123.39 25.26C124.342 24.2147 124.818 22.8333 124.818 21.116C124.818 19.38 124.342 17.9987 123.39 16.972C122.457 15.9267 121.206 15.404 119.638 15.404C118.051 15.404 116.782 15.9173 115.83 16.944C114.897 17.9707 114.43 19.3613 114.43 21.116C114.43 22.852 114.897 24.2427 115.83 25.288C116.782 26.3147 118.051 26.828 119.638 26.828Z" fill="#FF2525"/>
</svg>
