<svg width="85" height="85" viewBox="0 0 85 85" fill="none" xmlns="http://www.w3.org/2000/svg">
<g filter="url(#filter0_b_401_4795)">
<rect width="85" height="85" rx="21" fill="#D8FFEB"/>
</g>
<rect x="12" y="12" width="61" height="61" rx="14" fill="white"/>
<g clip-path="url(#clip0_401_4795)">
<path d="M42 25C32.0589 25 24 33.0589 24 43C24 52.9411 32.0589 61 42 61C51.9411 61 60 52.9411 60 43C60 33.0589 51.9411 25 42 25ZM49.8338 51.1229C49.605 51.5145 49.1931 51.7329 48.77 51.733C48.559 51.733 48.3454 51.6787 48.1501 51.5646C44.9154 49.6743 41.1786 49.3704 38.6128 49.4485C35.7706 49.5349 33.6863 50.096 33.6656 50.1017C33.0104 50.2807 32.3334 49.8951 32.1536 49.2401C31.974 48.585 32.3582 47.9084 33.013 47.728C33.107 47.7022 35.3499 47.0929 38.4689 46.9901C40.306 46.9295 42.0747 47.0575 43.7249 47.3706C45.8151 47.7671 47.7218 48.4631 49.3922 49.4392C49.9791 49.7822 50.1768 50.5361 49.8338 51.1229ZM52.1222 46.3702C51.8512 46.8341 51.3632 47.0927 50.862 47.0928C50.6122 47.0928 50.359 47.0285 50.1277 46.8934C46.2963 44.6541 41.8699 44.2944 38.8307 44.3868C35.464 44.4892 32.995 45.1538 32.9705 45.1606C32.1946 45.3723 31.3925 44.9159 31.1796 44.14C30.9668 43.364 31.422 42.5626 32.1976 42.3489C32.3089 42.3182 34.9656 41.5965 38.6601 41.4747C40.8365 41.403 42.9314 41.5546 44.8861 41.9254C47.3621 42.3952 49.6205 43.2195 51.599 44.3758C52.2944 44.782 52.5286 45.675 52.1222 46.3702ZM53.529 42.0488C53.2225 42.0488 52.912 41.97 52.6282 41.8041C43.5193 36.4807 31.7033 39.6455 31.585 39.6781C30.6327 39.9405 29.6482 39.3812 29.3859 38.429C29.1235 37.4767 29.6828 36.4922 30.635 36.2299C30.7715 36.1922 34.0303 35.3071 38.562 35.1577C41.2316 35.0698 43.8011 35.2556 46.1988 35.7105C49.2358 36.2866 52.0062 37.2978 54.433 38.716C55.2857 39.2144 55.573 40.3097 55.0747 41.1624C54.7422 41.7315 54.1437 42.0488 53.529 42.0488Z" fill="#00D95F"/>
</g>
<defs>
<filter id="filter0_b_401_4795" x="-15" y="-15" width="115" height="115" filterUnits="userSpaceOnUse" color-interpolation-filters="sRGB">
<feFlood flood-opacity="0" result="BackgroundImageFix"/>
<feGaussianBlur in="BackgroundImageFix" stdDeviation="7.5"/>
<feComposite in2="SourceAlpha" operator="in" result="effect1_backgroundBlur_401_4795"/>
<feBlend mode="normal" in="SourceGraphic" in2="effect1_backgroundBlur_401_4795" result="shape"/>
</filter>
<clipPath id="clip0_401_4795">
<rect width="36" height="36" fill="white" transform="translate(24 25)"/>
</clipPath>
</defs>
</svg>
