<svg width="115" height="154" viewBox="0 0 115 154" fill="none" xmlns="http://www.w3.org/2000/svg">
<rect width="115" height="154" rx="14" fill="white"/>
<path d="M20.7968 113.488C20.3488 113.312 20.0048 113.056 19.7648 112.72C19.5248 112.384 19.4048 111.976 19.4048 111.496C19.4048 111.064 19.5128 110.676 19.7288 110.332C19.9448 109.98 20.2648 109.704 20.6888 109.504C21.1208 109.296 21.6408 109.192 22.2488 109.192C22.8568 109.192 23.3728 109.296 23.7968 109.504C24.2288 109.704 24.5528 109.98 24.7688 110.332C24.9928 110.676 25.1048 111.064 25.1048 111.496C25.1048 111.96 24.9808 112.368 24.7328 112.72C24.4848 113.064 24.1448 113.32 23.7128 113.488C24.2088 113.64 24.6008 113.908 24.8888 114.292C25.1848 114.668 25.3328 115.124 25.3328 115.66C25.3328 116.18 25.2048 116.636 24.9488 117.028C24.6928 117.412 24.3288 117.712 23.8568 117.928C23.3928 118.136 22.8568 118.24 22.2488 118.24C21.6408 118.24 21.1048 118.136 20.6408 117.928C20.1848 117.712 19.8288 117.412 19.5728 117.028C19.3168 116.636 19.1888 116.18 19.1888 115.66C19.1888 115.124 19.3328 114.664 19.6208 114.28C19.9087 113.896 20.3008 113.632 20.7968 113.488ZM24.0488 111.628C24.0488 111.14 23.8888 110.764 23.5688 110.5C23.2488 110.236 22.8088 110.104 22.2488 110.104C21.6968 110.104 21.2608 110.236 20.9408 110.5C20.6208 110.764 20.4608 111.144 20.4608 111.64C20.4608 112.088 20.6248 112.448 20.9528 112.72C21.2888 112.992 21.7208 113.128 22.2488 113.128C22.7848 113.128 23.2168 112.992 23.5448 112.72C23.8808 112.44 24.0488 112.076 24.0488 111.628ZM22.2488 113.968C21.6568 113.968 21.1728 114.108 20.7968 114.388C20.4208 114.66 20.2327 115.072 20.2327 115.624C20.2327 116.136 20.4128 116.548 20.7728 116.86C21.1408 117.172 21.6328 117.328 22.2488 117.328C22.8648 117.328 23.3528 117.172 23.7128 116.86C24.0728 116.548 24.2528 116.136 24.2528 115.624C24.2528 115.088 24.0688 114.68 23.7008 114.4C23.3328 114.112 22.8488 113.968 22.2488 113.968ZM26.7831 113.572C26.7831 112.196 27.0071 111.124 27.4551 110.356C27.9031 109.58 28.6871 109.192 29.8071 109.192C30.9191 109.192 31.6991 109.58 32.1471 110.356C32.5951 111.124 32.8191 112.196 32.8191 113.572C32.8191 114.972 32.5951 116.06 32.1471 116.836C31.6991 117.612 30.9191 118 29.8071 118C28.6871 118 27.9031 117.612 27.4551 116.836C27.0071 116.06 26.7831 114.972 26.7831 113.572ZM31.7391 113.572C31.7391 112.876 31.6911 112.288 31.5951 111.808C31.5071 111.32 31.3191 110.928 31.0311 110.632C30.7511 110.336 30.3431 110.188 29.8071 110.188C29.2631 110.188 28.8471 110.336 28.5591 110.632C28.2791 110.928 28.0911 111.32 27.9951 111.808C27.9071 112.288 27.8631 112.876 27.8631 113.572C27.8631 114.292 27.9071 114.896 27.9951 115.384C28.0911 115.872 28.2791 116.264 28.5591 116.56C28.8471 116.856 29.2631 117.004 29.8071 117.004C30.3431 117.004 30.7511 116.856 31.0311 116.56C31.3191 116.264 31.5071 115.872 31.5951 115.384C31.6911 114.896 31.7391 114.292 31.7391 113.572ZM34.0782 111.28C34.0782 110.736 34.2422 110.304 34.5702 109.984C34.8982 109.656 35.3182 109.492 35.8302 109.492C36.3422 109.492 36.7622 109.656 37.0902 109.984C37.4182 110.304 37.5822 110.736 37.5822 111.28C37.5822 111.832 37.4182 112.272 37.0902 112.6C36.7622 112.92 36.3422 113.08 35.8302 113.08C35.3182 113.08 34.8982 112.92 34.5702 112.6C34.2422 112.272 34.0782 111.832 34.0782 111.28ZM41.0862 109.624L36.2262 118H35.1462L40.0062 109.624H41.0862ZM35.8302 110.164C35.5582 110.164 35.3422 110.26 35.1822 110.452C35.0302 110.636 34.9542 110.912 34.9542 111.28C34.9542 111.648 35.0302 111.928 35.1822 112.12C35.3422 112.312 35.5582 112.408 35.8302 112.408C36.1022 112.408 36.3182 112.312 36.4782 112.12C36.6382 111.92 36.7182 111.64 36.7182 111.28C36.7182 110.912 36.6382 110.636 36.4782 110.452C36.3182 110.26 36.1022 110.164 35.8302 110.164ZM38.6742 116.344C38.6742 115.792 38.8382 115.356 39.1662 115.036C39.4942 114.708 39.9142 114.544 40.4262 114.544C40.9382 114.544 41.3542 114.708 41.6742 115.036C42.0022 115.356 42.1662 115.792 42.1662 116.344C42.1662 116.888 42.0022 117.324 41.6742 117.652C41.3542 117.98 40.9382 118.144 40.4262 118.144C39.9142 118.144 39.4942 117.984 39.1662 117.664C38.8382 117.336 38.6742 116.896 38.6742 116.344ZM40.4142 115.228C40.1422 115.228 39.9262 115.324 39.7662 115.516C39.6062 115.7 39.5262 115.976 39.5262 116.344C39.5262 116.704 39.6062 116.98 39.7662 117.172C39.9262 117.356 40.1422 117.448 40.4142 117.448C40.6862 117.448 40.9022 117.356 41.0622 117.172C41.2222 116.98 41.3022 116.704 41.3022 116.344C41.3022 115.976 41.2222 115.7 41.0622 115.516C40.9022 115.324 40.6862 115.228 40.4142 115.228ZM49.1309 118.108C48.6269 118.108 48.1749 118.024 47.7749 117.856C47.3749 117.68 47.0589 117.44 46.8269 117.136C46.5949 116.824 46.4669 116.468 46.4429 116.068H47.5709C47.6029 116.396 47.7549 116.664 48.0269 116.872C48.3069 117.08 48.6709 117.184 49.1189 117.184C49.5349 117.184 49.8629 117.092 50.1029 116.908C50.3429 116.724 50.4629 116.492 50.4629 116.212C50.4629 115.924 50.3349 115.712 50.0789 115.576C49.8229 115.432 49.4269 115.292 48.8909 115.156C48.4029 115.028 48.0029 114.9 47.6909 114.772C47.3869 114.636 47.1229 114.44 46.8989 114.184C46.6829 113.92 46.5749 113.576 46.5749 113.152C46.5749 112.816 46.6749 112.508 46.8749 112.228C47.0749 111.948 47.3589 111.728 47.7269 111.568C48.0949 111.4 48.5149 111.316 48.9869 111.316C49.7149 111.316 50.3029 111.5 50.7509 111.868C51.1989 112.236 51.4389 112.74 51.4709 113.38H50.3789C50.3549 113.036 50.2149 112.76 49.9589 112.552C49.7109 112.344 49.3749 112.24 48.9509 112.24C48.5589 112.24 48.2469 112.324 48.0149 112.492C47.7829 112.66 47.6669 112.88 47.6669 113.152C47.6669 113.368 47.7349 113.548 47.8709 113.692C48.0149 113.828 48.1909 113.94 48.3989 114.028C48.6149 114.108 48.9109 114.2 49.2869 114.304C49.7589 114.432 50.1429 114.56 50.4389 114.688C50.7349 114.808 50.9869 114.992 51.1949 115.24C51.4109 115.488 51.5229 115.812 51.5309 116.212C51.5309 116.572 51.4309 116.896 51.2309 117.184C51.0309 117.472 50.7469 117.7 50.3789 117.868C50.0189 118.028 49.6029 118.108 49.1309 118.108ZM54.4044 112.324V116.2C54.4044 116.52 54.4724 116.748 54.6084 116.884C54.7444 117.012 54.9804 117.076 55.3164 117.076H56.1204V118H55.1364C54.5284 118 54.0724 117.86 53.7684 117.58C53.4644 117.3 53.3124 116.84 53.3124 116.2V112.324H52.4604V111.424H53.3124V109.768H54.4044V111.424H56.1204V112.324H54.4044ZM57.0355 114.688C57.0355 114.016 57.1715 113.428 57.4435 112.924C57.7155 112.412 58.0875 112.016 58.5595 111.736C59.0395 111.456 59.5715 111.316 60.1555 111.316C60.7315 111.316 61.2315 111.44 61.6555 111.688C62.0795 111.936 62.3955 112.248 62.6035 112.624V111.424H63.7075V118H62.6035V116.776C62.3875 117.16 62.0635 117.48 61.6315 117.736C61.2075 117.984 60.7115 118.108 60.1435 118.108C59.5595 118.108 59.0315 117.964 58.5595 117.676C58.0875 117.388 57.7155 116.984 57.4435 116.464C57.1715 115.944 57.0355 115.352 57.0355 114.688ZM62.6035 114.7C62.6035 114.204 62.5035 113.772 62.3035 113.404C62.1035 113.036 61.8315 112.756 61.4875 112.564C61.1515 112.364 60.7795 112.264 60.3715 112.264C59.9635 112.264 59.5915 112.36 59.2555 112.552C58.9195 112.744 58.6515 113.024 58.4515 113.392C58.2515 113.76 58.1515 114.192 58.1515 114.688C58.1515 115.192 58.2515 115.632 58.4515 116.008C58.6515 116.376 58.9195 116.66 59.2555 116.86C59.5915 117.052 59.9635 117.148 60.3715 117.148C60.7795 117.148 61.1515 117.052 61.4875 116.86C61.8315 116.66 62.1035 116.376 62.3035 116.008C62.5035 115.632 62.6035 115.196 62.6035 114.7ZM66.6449 112.492C66.8369 112.116 67.1089 111.824 67.4609 111.616C67.8209 111.408 68.2569 111.304 68.7689 111.304V112.432H68.4809C67.2569 112.432 66.6449 113.096 66.6449 114.424V118H65.5529V111.424H66.6449V112.492ZM71.3615 112.324V116.2C71.3615 116.52 71.4295 116.748 71.5655 116.884C71.7015 117.012 71.9375 117.076 72.2735 117.076H73.0775V118H72.0935C71.4855 118 71.0295 117.86 70.7255 117.58C70.4215 117.3 70.2695 116.84 70.2695 116.2V112.324H69.4175V111.424H70.2695V109.768H71.3615V111.424H73.0775V112.324H71.3615ZM80.2326 111.424V118H79.1406V117.028C78.9326 117.364 78.6406 117.628 78.2646 117.82C77.8966 118.004 77.4886 118.096 77.0406 118.096C76.5286 118.096 76.0686 117.992 75.6606 117.784C75.2526 117.568 74.9286 117.248 74.6886 116.824C74.4566 116.4 74.3406 115.884 74.3406 115.276V111.424H75.4206V115.132C75.4206 115.78 75.5846 116.28 75.9126 116.632C76.2406 116.976 76.6886 117.148 77.2566 117.148C77.8406 117.148 78.3006 116.968 78.6366 116.608C78.9726 116.248 79.1406 115.724 79.1406 115.036V111.424H80.2326ZM83.1683 112.636C83.3843 112.26 83.7043 111.948 84.1283 111.7C84.5603 111.444 85.0603 111.316 85.6283 111.316C86.2123 111.316 86.7403 111.456 87.2123 111.736C87.6923 112.016 88.0683 112.412 88.3403 112.924C88.6123 113.428 88.7483 114.016 88.7483 114.688C88.7483 115.352 88.6123 115.944 88.3403 116.464C88.0683 116.984 87.6923 117.388 87.2123 117.676C86.7403 117.964 86.2123 118.108 85.6283 118.108C85.0683 118.108 84.5723 117.984 84.1403 117.736C83.7163 117.48 83.3923 117.164 83.1683 116.788V121.12H82.0763V111.424H83.1683V112.636ZM87.6323 114.688C87.6323 114.192 87.5323 113.76 87.3323 113.392C87.1323 113.024 86.8603 112.744 86.5163 112.552C86.1803 112.36 85.8083 112.264 85.4003 112.264C85.0003 112.264 84.6283 112.364 84.2843 112.564C83.9483 112.756 83.6763 113.04 83.4683 113.416C83.2683 113.784 83.1683 114.212 83.1683 114.7C83.1683 115.196 83.2683 115.632 83.4683 116.008C83.6763 116.376 83.9483 116.66 84.2843 116.86C84.6283 117.052 85.0003 117.148 85.4003 117.148C85.8083 117.148 86.1803 117.052 86.5163 116.86C86.8603 116.66 87.1323 116.376 87.3323 116.008C87.5323 115.632 87.6323 115.192 87.6323 114.688ZM92.5137 118.108C92.0097 118.108 91.5577 118.024 91.1577 117.856C90.7577 117.68 90.4417 117.44 90.2097 117.136C89.9777 116.824 89.8497 116.468 89.8257 116.068H90.9537C90.9857 116.396 91.1377 116.664 91.4097 116.872C91.6897 117.08 92.0537 117.184 92.5017 117.184C92.9177 117.184 93.2457 117.092 93.4857 116.908C93.7257 116.724 93.8457 116.492 93.8457 116.212C93.8457 115.924 93.7177 115.712 93.4617 115.576C93.2057 115.432 92.8097 115.292 92.2737 115.156C91.7857 115.028 91.3857 114.9 91.0737 114.772C90.7697 114.636 90.5057 114.44 90.2817 114.184C90.0657 113.92 89.9577 113.576 89.9577 113.152C89.9577 112.816 90.0577 112.508 90.2577 112.228C90.4577 111.948 90.7417 111.728 91.1097 111.568C91.4777 111.4 91.8977 111.316 92.3697 111.316C93.0977 111.316 93.6857 111.5 94.1337 111.868C94.5817 112.236 94.8217 112.74 94.8537 113.38H93.7617C93.7377 113.036 93.5977 112.76 93.3417 112.552C93.0937 112.344 92.7577 112.24 92.3337 112.24C91.9417 112.24 91.6297 112.324 91.3977 112.492C91.1657 112.66 91.0497 112.88 91.0497 113.152C91.0497 113.368 91.1177 113.548 91.2537 113.692C91.3977 113.828 91.5737 113.94 91.7817 114.028C91.9977 114.108 92.2937 114.2 92.6697 114.304C93.1417 114.432 93.5257 114.56 93.8217 114.688C94.1177 114.808 94.3697 114.992 94.5777 115.24C94.7937 115.488 94.9057 115.812 94.9137 116.212C94.9137 116.572 94.8137 116.896 94.6137 117.184C94.4137 117.472 94.1297 117.7 93.7617 117.868C93.4017 118.028 92.9857 118.108 92.5137 118.108Z" fill="#1E2131"/>
<path d="M26.6839 128.172V138H24.2899V128.172H26.6839ZM33.1788 130.104C34.0934 130.104 34.8214 130.403 35.3628 131C35.9134 131.588 36.1888 132.4 36.1888 133.436V138H33.8088V133.758C33.8088 133.235 33.6734 132.829 33.4028 132.54C33.1321 132.251 32.7681 132.106 32.3108 132.106C31.8534 132.106 31.4894 132.251 31.2188 132.54C30.9481 132.829 30.8128 133.235 30.8128 133.758V138H28.4188V130.188H30.8128V131.224C31.0554 130.879 31.3821 130.608 31.7928 130.412C32.2034 130.207 32.6654 130.104 33.1788 130.104ZM41.3664 135.76L43.0604 130.188H45.6084L42.8364 138H39.8824L37.1104 130.188H39.6724L41.3664 135.76ZM53.98 133.968C53.98 134.192 53.966 134.425 53.938 134.668H48.52C48.5574 135.153 48.7114 135.527 48.982 135.788C49.262 136.04 49.6027 136.166 50.004 136.166C50.6014 136.166 51.0167 135.914 51.25 135.41H53.798C53.6674 135.923 53.4294 136.385 53.084 136.796C52.748 137.207 52.3234 137.529 51.81 137.762C51.2967 137.995 50.7227 138.112 50.088 138.112C49.3227 138.112 48.6414 137.949 48.044 137.622C47.4467 137.295 46.98 136.829 46.644 136.222C46.308 135.615 46.14 134.906 46.14 134.094C46.14 133.282 46.3034 132.573 46.63 131.966C46.966 131.359 47.4327 130.893 48.03 130.566C48.6274 130.239 49.3134 130.076 50.088 130.076C50.844 130.076 51.516 130.235 52.104 130.552C52.692 130.869 53.1494 131.322 53.476 131.91C53.812 132.498 53.98 133.184 53.98 133.968ZM51.53 133.338C51.53 132.927 51.39 132.601 51.11 132.358C50.83 132.115 50.48 131.994 50.06 131.994C49.6587 131.994 49.318 132.111 49.038 132.344C48.7674 132.577 48.5994 132.909 48.534 133.338H51.53ZM58.421 138.112C57.7397 138.112 57.133 137.995 56.601 137.762C56.069 137.529 55.649 137.211 55.341 136.81C55.033 136.399 54.8603 135.942 54.823 135.438H57.189C57.217 135.709 57.343 135.928 57.567 136.096C57.791 136.264 58.0663 136.348 58.393 136.348C58.6917 136.348 58.9203 136.292 59.079 136.18C59.247 136.059 59.331 135.905 59.331 135.718C59.331 135.494 59.2143 135.331 58.981 135.228C58.7477 135.116 58.3697 134.995 57.847 134.864C57.287 134.733 56.8203 134.598 56.447 134.458C56.0737 134.309 55.7517 134.08 55.481 133.772C55.2103 133.455 55.075 133.03 55.075 132.498C55.075 132.05 55.1963 131.644 55.439 131.28C55.691 130.907 56.055 130.613 56.531 130.398C57.0163 130.183 57.5903 130.076 58.253 130.076C59.233 130.076 60.003 130.319 60.563 130.804C61.1323 131.289 61.459 131.933 61.543 132.736H59.331C59.2937 132.465 59.1723 132.251 58.967 132.092C58.771 131.933 58.5097 131.854 58.183 131.854C57.903 131.854 57.6883 131.91 57.539 132.022C57.3897 132.125 57.315 132.269 57.315 132.456C57.315 132.68 57.4317 132.848 57.665 132.96C57.9077 133.072 58.281 133.184 58.785 133.296C59.3637 133.445 59.835 133.595 60.199 133.744C60.563 133.884 60.8803 134.117 61.151 134.444C61.431 134.761 61.5757 135.191 61.585 135.732C61.585 136.189 61.4543 136.6 61.193 136.964C60.941 137.319 60.5723 137.599 60.087 137.804C59.611 138.009 59.0557 138.112 58.421 138.112ZM67.4036 135.97V138H66.1856C65.3176 138 64.641 137.79 64.1556 137.37C63.6703 136.941 63.4276 136.245 63.4276 135.284V132.176H62.4756V130.188H63.4276V128.284H65.8216V130.188H67.3896V132.176H65.8216V135.312C65.8216 135.545 65.8776 135.713 65.9896 135.816C66.1016 135.919 66.2883 135.97 66.5496 135.97H67.4036ZM72.2931 138.112C71.5278 138.112 70.8371 137.949 70.2211 137.622C69.6145 137.295 69.1338 136.829 68.7791 136.222C68.4338 135.615 68.2611 134.906 68.2611 134.094C68.2611 133.291 68.4385 132.587 68.7931 131.98C69.1478 131.364 69.6331 130.893 70.2491 130.566C70.8651 130.239 71.5558 130.076 72.3211 130.076C73.0865 130.076 73.7771 130.239 74.3931 130.566C75.0091 130.893 75.4945 131.364 75.8491 131.98C76.2038 132.587 76.3811 133.291 76.3811 134.094C76.3811 134.897 76.1991 135.606 75.8351 136.222C75.4805 136.829 74.9905 137.295 74.3651 137.622C73.7491 137.949 73.0585 138.112 72.2931 138.112ZM72.2931 136.04C72.7505 136.04 73.1378 135.872 73.4551 135.536C73.7818 135.2 73.9451 134.719 73.9451 134.094C73.9451 133.469 73.7865 132.988 73.4691 132.652C73.1611 132.316 72.7785 132.148 72.3211 132.148C71.8545 132.148 71.4671 132.316 71.1591 132.652C70.8511 132.979 70.6971 133.459 70.6971 134.094C70.6971 134.719 70.8465 135.2 71.1451 135.536C71.4531 135.872 71.8358 136.04 72.2931 136.04ZM80.0452 131.49C80.3252 131.061 80.6752 130.725 81.0952 130.482C81.5152 130.23 81.9819 130.104 82.4952 130.104V132.638H81.8372C81.2399 132.638 80.7919 132.769 80.4932 133.03C80.1945 133.282 80.0452 133.73 80.0452 134.374V138H77.6512V130.188H80.0452V131.49ZM86.8175 138.112C86.1362 138.112 85.5295 137.995 84.9975 137.762C84.4655 137.529 84.0455 137.211 83.7375 136.81C83.4295 136.399 83.2568 135.942 83.2195 135.438H85.5855C85.6135 135.709 85.7395 135.928 85.9635 136.096C86.1875 136.264 86.4628 136.348 86.7895 136.348C87.0882 136.348 87.3168 136.292 87.4755 136.18C87.6435 136.059 87.7275 135.905 87.7275 135.718C87.7275 135.494 87.6108 135.331 87.3775 135.228C87.1442 135.116 86.7662 134.995 86.2435 134.864C85.6835 134.733 85.2168 134.598 84.8435 134.458C84.4702 134.309 84.1482 134.08 83.8775 133.772C83.6068 133.455 83.4715 133.03 83.4715 132.498C83.4715 132.05 83.5928 131.644 83.8355 131.28C84.0875 130.907 84.4515 130.613 84.9275 130.398C85.4128 130.183 85.9868 130.076 86.6495 130.076C87.6295 130.076 88.3995 130.319 88.9595 130.804C89.5288 131.289 89.8555 131.933 89.9395 132.736H87.7275C87.6902 132.465 87.5688 132.251 87.3635 132.092C87.1675 131.933 86.9062 131.854 86.5795 131.854C86.2995 131.854 86.0848 131.91 85.9355 132.022C85.7862 132.125 85.7115 132.269 85.7115 132.456C85.7115 132.68 85.8282 132.848 86.0615 132.96C86.3042 133.072 86.6775 133.184 87.1815 133.296C87.7602 133.445 88.2315 133.595 88.5955 133.744C88.9595 133.884 89.2768 134.117 89.5475 134.444C89.8275 134.761 89.9722 135.191 89.9815 135.732C89.9815 136.189 89.8508 136.6 89.5895 136.964C89.3375 137.319 88.9688 137.599 88.4835 137.804C88.0075 138.009 87.4522 138.112 86.8175 138.112Z" fill="#161925"/>
<circle cx="58" cy="55" r="31" fill="#8044F1"/>
<path d="M58 23C58 21.8954 58.8963 20.9939 59.9989 21.0588C66.5992 21.4474 72.9593 23.7539 78.2882 27.7165C84.1532 32.0777 88.4567 38.2129 90.5607 45.2123C92.6647 52.2118 92.4572 59.7029 89.969 66.5751C87.4807 73.4474 82.8442 79.3349 76.7467 83.3648C70.6493 87.3947 63.4155 89.3525 56.1179 88.9479C48.8202 88.5433 41.8472 85.7978 36.2326 81.1186C30.618 76.4394 26.6607 70.0754 24.9474 62.9702C23.3907 56.5146 23.7617 49.7594 25.9914 43.5349C26.3638 42.495 27.5446 42.0239 28.5607 42.4569L36.0865 45.6633C37.1026 46.0963 37.5659 47.2691 37.2278 48.3206C36.0045 52.1248 35.8456 56.2055 36.7883 60.1149C37.8879 64.6747 40.4275 68.7588 44.0307 71.7617C47.6339 74.7647 52.1088 76.5266 56.7921 76.7862C61.4754 77.0459 66.1177 75.7894 70.0308 73.2032C73.9439 70.617 76.9194 66.8387 78.5163 62.4284C80.1131 58.0181 80.2463 53.2106 78.896 48.7187C77.5457 44.2268 74.7839 40.2895 71.02 37.4907C67.7929 35.091 63.9765 33.6376 59.9973 33.2719C58.8974 33.1708 58 32.2849 58 31.1803V23Z" fill="url(#paint0_linear_401_13775)"/>
<path d="M58 22C58 20.8954 58.8962 19.994 59.999 20.0571C65.6902 20.3827 71.2269 22.0944 76.1211 25.0563C81.5868 28.364 86.0429 33.1046 89.0065 38.7643C91.97 44.424 93.3279 50.7868 92.9331 57.1633C92.5382 63.5397 90.4056 69.6864 86.7664 74.9372C83.1272 80.188 78.1203 84.3426 72.2882 86.9507C66.4562 89.5588 60.0216 90.5208 53.6817 89.7326C47.3419 88.9444 41.3387 86.4359 36.3229 82.4791C31.8315 78.9361 28.2851 74.3527 25.9825 69.1379C25.5363 68.1274 26.0657 66.9718 27.1 66.5841L36.217 63.1662C37.2513 62.7784 38.3957 63.3079 38.8788 64.3012C40.2766 67.1747 42.3083 69.7045 44.8306 71.6943C47.8779 74.0981 51.5249 75.622 55.3765 76.1009C59.2281 76.5798 63.1374 75.9953 66.6805 74.4108C70.2236 72.8264 73.2654 70.3023 75.4763 67.1124C77.6872 63.9224 78.9828 60.1881 79.2227 56.3142C79.4626 52.4404 78.6376 48.5748 76.8372 45.1364C75.0368 41.698 72.3296 38.818 69.009 36.8085C66.2605 35.1451 63.1785 34.1308 59.9971 33.8306C58.8974 33.7269 58 32.8412 58 31.7366V22Z" fill="url(#paint1_linear_401_13775)"/>
<path d="M58 17.0659C58 15.9249 58.9256 14.9944 60.065 15.0533C65.1529 15.3163 70.1504 16.5493 74.7862 18.6927C80.048 21.1254 84.7181 24.6727 88.4732 29.0889C92.2283 33.5051 94.9786 38.6848 96.5337 44.2692C98.0889 49.8536 98.4116 55.7093 97.4797 61.4307C96.5477 67.1522 94.3833 72.6028 91.1364 77.405C87.8894 82.2072 83.6374 86.2462 78.6749 89.2425C73.7124 92.2387 68.158 94.1206 62.3962 94.7577C57.3198 95.319 52.1893 94.9023 47.281 93.537C46.1818 93.2313 45.5994 92.0552 45.9614 90.9732L50.5952 77.1268C50.9573 76.0448 52.1267 75.4718 53.2386 75.7272C55.5603 76.2606 57.96 76.4011 60.3374 76.1382C63.4008 75.7995 66.3539 74.799 68.9924 73.2059C71.6308 71.6129 73.8915 69.4654 75.6178 66.9122C77.3442 64.359 78.4949 61.4611 78.9904 58.4191C79.4859 55.3771 79.3143 52.2638 78.4875 49.2947C77.6607 46.3256 76.1984 43.5717 74.2019 41.2237C72.2054 38.8756 69.7224 36.9896 66.9249 35.6962C64.7538 34.6925 62.4335 34.0642 60.0626 33.8332C58.9271 33.7225 58 32.808 58 31.667V17.0659Z" fill="url(#paint2_linear_401_13775)"/>
<circle cx="58" cy="55" r="17" fill="white"/>
<path d="M50.7045 55.512C49.8272 55.0453 49.3885 54.3127 49.3885 53.314C49.3885 52.81 49.5192 52.3527 49.7805 51.942C50.0419 51.522 50.4385 51.1907 50.9705 50.948C51.5025 50.696 52.1559 50.57 52.9305 50.57C53.7052 50.57 54.3539 50.696 54.8765 50.948C55.4085 51.1907 55.8052 51.522 56.0665 51.942C56.3279 52.3527 56.4585 52.81 56.4585 53.314C56.4585 53.818 56.3372 54.2567 56.0945 54.63C55.8612 55.0033 55.5439 55.2973 55.1425 55.512C55.6465 55.7547 56.0339 56.0907 56.3045 56.52C56.5752 56.94 56.7105 57.4347 56.7105 58.004C56.7105 58.6667 56.5425 59.2407 56.2065 59.726C55.8705 60.202 55.4132 60.566 54.8345 60.818C54.2652 61.07 53.6305 61.196 52.9305 61.196C52.2305 61.196 51.5912 61.07 51.0125 60.818C50.4432 60.566 49.9905 60.202 49.6545 59.726C49.3185 59.2407 49.1505 58.6667 49.1505 58.004C49.1505 57.4253 49.2859 56.926 49.5565 56.506C49.8272 56.0767 50.2099 55.7453 50.7045 55.512ZM54.1345 53.678C54.1345 53.2953 54.0225 53.0013 53.7985 52.796C53.5839 52.5813 53.2945 52.474 52.9305 52.474C52.5665 52.474 52.2725 52.5813 52.0485 52.796C51.8339 53.0107 51.7265 53.3093 51.7265 53.692C51.7265 54.056 51.8385 54.3453 52.0625 54.56C52.2865 54.7653 52.5759 54.868 52.9305 54.868C53.2852 54.868 53.5745 54.7607 53.7985 54.546C54.0225 54.3313 54.1345 54.042 54.1345 53.678ZM52.9305 56.548C52.4919 56.548 52.1372 56.6693 51.8665 56.912C51.5959 57.1453 51.4605 57.472 51.4605 57.892C51.4605 58.284 51.5912 58.606 51.8525 58.858C52.1232 59.11 52.4825 59.236 52.9305 59.236C53.3785 59.236 53.7285 59.11 53.9805 58.858C54.2419 58.606 54.3725 58.284 54.3725 57.892C54.3725 57.4813 54.2372 57.1547 53.9665 56.912C53.7052 56.6693 53.3599 56.548 52.9305 56.548ZM58.1027 55.75C58.1027 54.1447 58.4107 52.88 59.0267 51.956C59.652 51.032 60.6553 50.57 62.0367 50.57C63.418 50.57 64.4167 51.032 65.0327 51.956C65.658 52.88 65.9707 54.1447 65.9707 55.75C65.9707 57.374 65.658 58.648 65.0327 59.572C64.4167 60.496 63.418 60.958 62.0367 60.958C60.6553 60.958 59.652 60.496 59.0267 59.572C58.4107 58.648 58.1027 57.374 58.1027 55.75ZM63.6187 55.75C63.6187 54.8073 63.516 54.084 63.3107 53.58C63.1053 53.0667 62.6807 52.81 62.0367 52.81C61.3927 52.81 60.968 53.0667 60.7627 53.58C60.5573 54.084 60.4547 54.8073 60.4547 55.75C60.4547 56.3847 60.492 56.912 60.5667 57.332C60.6413 57.7427 60.7907 58.0787 61.0147 58.34C61.248 58.592 61.5887 58.718 62.0367 58.718C62.4847 58.718 62.8207 58.592 63.0447 58.34C63.278 58.0787 63.432 57.7427 63.5067 57.332C63.5813 56.912 63.6187 56.3847 63.6187 55.75Z" fill="#161925"/>
<path d="M66.252 50.682C66.252 50.39 66.336 50.162 66.504 49.998C66.676 49.83 66.896 49.746 67.164 49.746C67.432 49.746 67.65 49.83 67.818 49.998C67.99 50.162 68.076 50.39 68.076 50.682C68.076 50.974 67.99 51.204 67.818 51.372C67.65 51.54 67.432 51.624 67.164 51.624C66.896 51.624 66.676 51.54 66.504 51.372C66.336 51.204 66.252 50.974 66.252 50.682ZM69.912 49.824L67.518 54H66.846L69.24 49.824H69.912ZM67.164 50.16C66.912 50.16 66.786 50.334 66.786 50.682C66.786 51.034 66.912 51.21 67.164 51.21C67.284 51.21 67.376 51.168 67.44 51.084C67.508 50.996 67.542 50.862 67.542 50.682C67.542 50.334 67.416 50.16 67.164 50.16ZM68.694 53.136C68.694 52.844 68.778 52.616 68.946 52.452C69.118 52.284 69.338 52.2 69.606 52.2C69.87 52.2 70.086 52.284 70.254 52.452C70.426 52.616 70.512 52.844 70.512 53.136C70.512 53.428 70.426 53.658 70.254 53.826C70.086 53.994 69.87 54.078 69.606 54.078C69.338 54.078 69.118 53.994 68.946 53.826C68.778 53.658 68.694 53.428 68.694 53.136ZM69.6 52.614C69.348 52.614 69.222 52.788 69.222 53.136C69.222 53.484 69.348 53.658 69.6 53.658C69.852 53.658 69.978 53.484 69.978 53.136C69.978 52.788 69.852 52.614 69.6 52.614Z" fill="#161925"/>
<defs>
<linearGradient id="paint0_linear_401_13775" x1="96.0182" y1="21" x2="83.6545" y2="138.455" gradientUnits="userSpaceOnUse">
<stop stop-color="#FFFDCE"/>
<stop offset="1" stop-color="#FF1DF7"/>
</linearGradient>
<linearGradient id="paint1_linear_401_13775" x1="97.1364" y1="20" x2="84.4091" y2="140.909" gradientUnits="userSpaceOnUse">
<stop stop-color="#FFDE66"/>
<stop offset="1" stop-color="#FF1DF7"/>
</linearGradient>
<linearGradient id="paint2_linear_401_13775" x1="102.727" y1="15" x2="88.1818" y2="153.182" gradientUnits="userSpaceOnUse">
<stop stop-color="#FFDE66"/>
<stop offset="1" stop-color="#F6733B"/>
</linearGradient>
</defs>
</svg>
