<svg width="30" height="28" viewBox="0 0 30 28" fill="none" xmlns="http://www.w3.org/2000/svg">
<path d="M7.57634 27.4583C6.78301 27.4597 6.05342 27.0234 5.67942 26.325C5.45701 25.9141 5.37626 25.441 5.45134 24.9791L6.71359 17.91C6.71359 17.8944 6.70934 17.8788 6.69801 17.8675L1.45634 12.8241C1.05826 12.436 0.834424 11.9033 0.833008 11.3465C0.833008 10.76 1.06817 10.1976 1.48609 9.78821C1.81617 9.49071 2.22417 9.29521 2.66192 9.22154L9.81609 8.18738C9.84442 8.18738 9.87417 8.17463 9.87417 8.14488L13.073 1.73163C13.3252 1.22304 13.7686 0.837709 14.3055 0.654959C14.5293 0.578459 14.7645 0.541626 14.9997 0.541626C15.8114 0.545876 16.5509 1.00488 16.9122 1.73163L20.1153 8.16329C20.1294 8.17746 20.1436 8.19163 20.1563 8.19163L27.3275 9.22579C27.8885 9.30513 28.3971 9.59979 28.7442 10.0475C29.3831 10.9031 29.2853 12.0974 28.5175 12.8383L23.3183 17.8675C23.3183 17.8675 23.3084 17.8774 23.3084 17.8816C23.3084 17.8859 23.3084 17.8816 23.3183 17.8958L24.565 24.9933C24.735 26.1479 23.9473 27.2274 22.7942 27.4158C22.6837 27.4314 22.5703 27.4413 22.4584 27.4413C22.1071 27.4427 21.76 27.3563 21.4498 27.1891L15.045 23.8458C15.0252 23.8444 15.0053 23.85 14.9883 23.86L8.53967 27.2316C8.24217 27.3818 7.91067 27.4597 7.57634 27.4583Z" fill="url(#paint0_linear_401_11373)"/>
<defs>
<linearGradient id="paint0_linear_401_11373" x1="-0.841178" y1="0.541626" x2="3.8132" y2="47.0838" gradientUnits="userSpaceOnUse">
<stop stop-color="#FFDE66"/>
<stop offset="1" stop-color="#F6733B"/>
</linearGradient>
</defs>
</svg>
