<svg width="72" height="72" viewBox="0 0 72 72" fill="none" xmlns="http://www.w3.org/2000/svg">
<circle cx="36" cy="36" r="36" fill="#9CD161"/>
<path fill-rule="evenodd" clip-rule="evenodd" d="M47.4179 24.2543C47.729 24.4534 47.9173 24.7974 47.9173 25.1668V43.5835C47.9173 44.0061 47.6716 44.39 47.288 44.5671L40.2463 47.8171C39.9677 47.9457 39.6476 47.9501 39.3656 47.8292L32.2253 44.7691L25.6213 47.8171C25.2859 47.9719 24.8946 47.9451 24.5835 47.746C24.2723 47.5469 24.084 47.2029 24.084 46.8335V28.4168C24.084 27.9943 24.3297 27.6103 24.7133 27.4332L31.755 24.1832C32.0336 24.0546 32.3537 24.0502 32.6357 24.1711L39.776 27.2312L46.38 24.1832C46.7154 24.0284 47.1067 24.0552 47.4179 24.2543ZM38.709 29.1312L33.2923 26.8097V42.8692L38.709 45.1906V29.1312ZM40.8757 45.1404L45.7507 42.8904V26.86L40.8757 29.11V45.1404ZM31.1257 42.8904V26.86L26.2507 29.11V45.1404L31.1257 42.8904Z" fill="white"/>
</svg>
