<svg width="72" height="72" viewBox="0 0 72 72" fill="none" xmlns="http://www.w3.org/2000/svg">
<circle cx="36" cy="36" r="36" fill="#FFBE16"/>
<path fill-rule="evenodd" clip-rule="evenodd" d="M36.5581 25.3209C36.215 25.115 35.7865 25.115 35.4434 25.3209L24.61 31.8209C24.2954 32.0097 24.0977 32.345 24.0848 32.7118C24.0719 33.0785 24.2455 33.4269 24.5462 33.6373L35.3795 41.2207C35.7525 41.4818 36.249 41.4818 36.622 41.2207L47.4553 33.6373C47.756 33.4269 47.9296 33.0785 47.9167 32.7118C47.9039 32.345 47.7062 32.0097 47.3915 31.8209L36.5581 25.3209ZM36.0008 39.0108L27.1565 32.8198L36.0008 27.5132L44.845 32.8198L36.0008 39.0108Z" fill="white"/>
<path d="M25.7887 37.279C25.2985 36.9359 24.623 37.0551 24.2799 37.5452C23.9368 38.0354 24.056 38.7109 24.5462 39.054L35.3795 46.6373C35.7525 46.8984 36.249 46.8984 36.622 46.6373L47.4553 39.054C47.9455 38.7109 48.0647 38.0354 47.7216 37.5452C47.3785 37.0551 46.703 36.9359 46.2128 37.279L36.0007 44.4275L25.7887 37.279Z" fill="white"/>
</svg>
