<svg width="72" height="72" viewBox="0 0 72 72" fill="none" xmlns="http://www.w3.org/2000/svg">
<circle cx="36" cy="36" r="36" fill="#6EBECE"/>
<path fill-rule="evenodd" clip-rule="evenodd" d="M36.403 24.161C36.1447 24.0577 35.8566 24.0577 35.5983 24.161L24.765 28.4943C24.3537 28.6588 24.084 29.0572 24.084 29.5002V41.9585C24.084 42.3848 24.334 42.7715 24.7228 42.9464L35.5561 47.8214C35.8388 47.9486 36.1625 47.9486 36.4452 47.8214L47.2785 42.9464C47.6673 42.7715 47.9173 42.3848 47.9173 41.9585V29.5002C47.9173 29.0572 47.6476 28.6588 47.2363 28.4943L36.403 24.161ZM34.9173 45.158L26.2507 41.258V31.1003L34.9173 34.5669V45.158ZM45.7507 41.258L37.084 45.158V34.5669L45.7507 31.1003V41.258ZM36.0007 32.6667L43.917 29.5002L36.0007 26.3336L28.0843 29.5002L36.0007 32.6667Z" fill="white"/>
</svg>
