<svg width="22" height="22" viewBox="0 0 22 22" fill="none" xmlns="http://www.w3.org/2000/svg">
<path d="M12 6C12 5.44772 11.5523 5 11 5C10.4477 5 10 5.44772 10 6V13C10 13.5523 10.4477 14 11 14C11.5523 14 12 13.5523 12 13V6Z" fill="white"/>
<path d="M15 7C15.5523 7 16 7.44772 16 8V11C16 11.5523 15.5523 12 15 12C14.4477 12 14 11.5523 14 11V8C14 7.44772 14.4477 7 15 7Z" fill="white"/>
<path d="M8 8C8 7.44772 7.55228 7 7 7C6.44772 7 6 7.44772 6 8V11C6 11.5523 6.44772 12 7 12C7.55229 12 8 11.5523 8 11V8Z" fill="white"/>
<path fill-rule="evenodd" clip-rule="evenodd" d="M11 0C6.38921 0 3.53087 1.01939 1.87429 2.90187C0.236216 4.76332 0 7.22786 0 9.5C0 11.7731 0.239373 14.1685 1.56658 15.9914C2.87809 17.7926 5.08016 18.8232 8.45287 18.9226L10.1622 21.5459C10.3467 21.8292 10.6619 22 11 22C11.3381 22 11.6533 21.8292 11.8378 21.5459L13.5438 18.9277C16.9188 18.8586 19.1231 17.8272 20.435 16.0153C21.7607 14.1843 22 11.7727 22 9.5C22 7.22786 21.7638 4.76332 20.1257 2.90187C18.4691 1.01939 15.6108 0 11 0ZM2 9.5C2 7.27214 2.26378 5.48668 3.37571 4.22313C4.46912 2.98061 6.61079 2 11 2C15.3892 2 17.5309 2.98061 18.6243 4.22313C19.7362 5.48668 20 7.27214 20 9.5C20 11.7273 19.7393 13.5657 18.815 14.8424C17.9474 16.0407 16.3205 16.9634 13.0099 16.9306L12.4615 16.9251L11 19.1682L9.54197 16.9305H9C5.68351 16.9305 4.05228 16.0075 3.18342 14.8141C2.26063 13.5467 2 11.7269 2 9.5Z" fill="white"/>
</svg>
