<svg width="14" height="14" viewBox="0 0 14 14" fill="none" xmlns="http://www.w3.org/2000/svg">
<path fill-rule="evenodd" clip-rule="evenodd" d="M3.33425 0.608372C2.61428 0.715717 2.04493 1.00378 1.52506 1.52373C0.990387 2.05848 0.696937 2.65549 0.599798 3.40618C0.561786 3.69997 0.561786 10.2984 0.599798 10.5922C0.696937 11.3429 0.990387 11.9399 1.52506 12.4747C2.05974 13.0094 2.65668 13.3029 3.40728 13.4C3.70103 13.4381 10.2987 13.4381 10.5924 13.4C11.343 13.3029 11.94 13.0094 12.4747 12.4747C13.0093 11.9399 13.3028 11.3429 13.3999 10.5922C13.4379 10.2984 13.4379 3.69997 13.3999 3.40618C13.3028 2.65549 13.0093 2.05848 12.4747 1.52373C11.94 0.98899 11.343 0.695504 10.5924 0.598353C10.2707 0.556721 3.61903 0.565886 3.33425 0.608372ZM10.8596 1.74402C11.142 1.8424 11.2054 1.87417 11.4377 2.03407C11.8107 2.29079 12.1038 2.68926 12.2515 3.14047L12.3351 3.39591V6.9992C12.3351 10.4479 12.3331 10.6089 12.2882 10.7531C12.1181 11.2992 11.829 11.7019 11.398 11.9935C11.2139 12.118 11.0521 12.1932 10.7899 12.276L10.6027 12.3351H6.99986H3.39701L3.1416 12.2514C2.4379 12.021 1.94593 11.5056 1.71156 10.7531C1.66664 10.6089 1.66463 10.4479 1.66463 6.9992C1.66463 3.55049 1.66664 3.38946 1.71156 3.24525C1.89017 2.67181 2.20089 2.25556 2.66736 1.96479C2.86311 1.84278 3.19887 1.71171 3.40751 1.67585C3.47078 1.66498 5.12123 1.65772 7.07518 1.6597L10.6278 1.66332L10.8596 1.74402ZM10.314 2.74092C10.135 2.77969 10.0328 2.8353 9.91249 2.95925C9.7485 3.12826 9.69878 3.25939 9.69934 3.52146C9.69976 3.71687 9.7088 3.76445 9.76622 3.873C9.90466 4.1348 10.1388 4.28792 10.4298 4.30693C10.6421 4.32079 10.7552 4.28998 10.9347 4.16935C11.4344 3.8336 11.377 3.06752 10.8328 2.80854C10.6468 2.72002 10.4992 2.70079 10.314 2.74092ZM6.58899 3.81186C5.37582 3.98002 4.34211 4.82577 3.96453 5.95914C3.83553 6.34634 3.80013 6.57032 3.80013 6.9992C3.80013 7.42838 3.83541 7.65138 3.96503 8.04126C4.2672 8.95007 5.05096 9.73205 5.96488 10.0366C6.34695 10.1639 6.57241 10.1993 6.99986 10.1993C7.42731 10.1993 7.65277 10.1639 8.03484 10.0366C8.94876 9.73205 9.73253 8.95007 10.0347 8.04126C10.1643 7.65138 10.1996 7.42838 10.1996 6.9992C10.1996 6.43641 10.0901 5.97699 9.84676 5.51874C9.38367 4.64672 8.58313 4.04734 7.61498 3.84774C7.37335 3.79792 6.82728 3.77881 6.58899 3.81186ZM7.64586 4.96185C7.91365 5.05079 7.98604 5.08561 8.19244 5.22477C8.61361 5.50879 8.89895 5.90204 9.06174 6.42277C9.11246 6.58503 9.12024 6.66187 9.12024 6.9992C9.12024 7.41369 9.09044 7.56555 8.94422 7.89625C8.75797 8.31742 8.31692 8.75798 7.89445 8.94485C7.5663 9.08998 7.4136 9.11984 6.99986 9.11984C6.58612 9.11984 6.43342 9.08998 6.10528 8.94485C5.6828 8.75798 5.24175 8.31742 5.0555 7.89625C4.90928 7.56555 4.87948 7.41369 4.87948 6.9992C4.87948 6.66187 4.88726 6.58503 4.93798 6.42277C5.02342 6.1495 5.09854 5.99181 5.24265 5.78332C5.52651 5.37267 5.9239 5.0873 6.41095 4.94434C6.6574 4.87203 6.69572 4.86814 7.07518 4.87697C7.37378 4.88393 7.44172 4.89405 7.64586 4.96185Z" fill="white"/>
</svg>
