<svg width="35" height="35" viewBox="0 0 35 35" fill="none" xmlns="http://www.w3.org/2000/svg">
<rect width="35" height="35" rx="17.5" fill="white"/>
<path fill-rule="evenodd" clip-rule="evenodd" d="M14.4453 12.1734C13.8453 12.2628 13.3709 12.5029 12.9376 12.9362C12.4921 13.3818 12.2475 13.8793 12.1666 14.5049C12.1349 14.7497 12.1349 20.2484 12.1666 20.4932C12.2475 21.1188 12.4921 21.6163 12.9376 22.062C13.3832 22.5076 13.8807 22.7521 14.5062 22.8331C14.7509 22.8648 20.249 22.8648 20.4938 22.8331C21.1193 22.7521 21.6167 22.5076 22.0623 22.062C22.5079 21.6163 22.7524 21.1188 22.8334 20.4932C22.865 20.2484 22.865 14.7497 22.8334 14.5049C22.7524 13.8793 22.5079 13.3818 22.0623 12.9362C21.6167 12.4906 21.1193 12.246 20.4938 12.165C20.2257 12.1303 14.6826 12.138 14.4453 12.1734ZM20.7164 13.1198C20.9518 13.2017 21.0045 13.2282 21.1981 13.3615C21.509 13.5754 21.7532 13.9075 21.8763 14.2835L21.946 14.4963V17.4991C21.946 20.373 21.9443 20.5072 21.9069 20.6274C21.7652 21.0824 21.5243 21.418 21.1651 21.661C21.0117 21.7648 20.8769 21.8274 20.6583 21.8964L20.5023 21.9456H17.5H14.4976L14.2847 21.8759C13.6983 21.6839 13.2884 21.2544 13.093 20.6274C13.0556 20.5072 13.0539 20.373 13.0539 17.4991C13.0539 14.6251 13.0556 14.4909 13.093 14.3708C13.2419 13.8929 13.5008 13.546 13.8895 13.3037C14.0527 13.2021 14.3325 13.0928 14.5063 13.0629C14.5591 13.0539 15.9344 13.0478 17.5627 13.0495L20.5233 13.0525L20.7164 13.1198ZM20.2617 13.9505C20.1126 13.9828 20.0274 14.0292 19.9272 14.1324C19.7905 14.2733 19.7491 14.3826 19.7495 14.601C19.7499 14.7638 19.7574 14.8034 19.8053 14.8939C19.9206 15.1121 20.1158 15.2397 20.3582 15.2555C20.5352 15.2671 20.6294 15.2414 20.779 15.1409C21.1954 14.8611 21.1476 14.2227 20.6941 14.0068C20.5391 13.9331 20.4161 13.9171 20.2617 13.9505ZM17.1576 14.843C16.1466 14.9831 15.2852 15.6879 14.9705 16.6324C14.863 16.955 14.8335 17.1417 14.8335 17.4991C14.8335 17.8567 14.8629 18.0426 14.9709 18.3675C15.2227 19.1248 15.8759 19.7764 16.6375 20.0302C16.9559 20.1363 17.1438 20.1658 17.5 20.1658C17.8562 20.1658 18.0441 20.1363 18.3625 20.0302C19.1241 19.7764 19.7772 19.1248 20.029 18.3675C20.137 18.0426 20.1664 17.8567 20.1664 17.4991C20.1664 17.0301 20.0752 16.6472 19.8724 16.2653C19.4865 15.5387 18.8194 15.0392 18.0126 14.8729C17.8112 14.8313 17.3561 14.8154 17.1576 14.843ZM18.0383 15.8013C18.2615 15.8754 18.3218 15.9044 18.4938 16.0204C18.8448 16.2571 19.0825 16.5848 19.2182 17.0187C19.2605 17.1539 19.267 17.218 19.267 17.4991C19.267 17.8445 19.2421 17.971 19.1203 18.2466C18.9651 18.5976 18.5975 18.9647 18.2455 19.1204C17.972 19.2414 17.8447 19.2663 17.5 19.2663C17.1552 19.2663 17.0279 19.2414 16.7545 19.1204C16.4024 18.9647 16.0349 18.5976 15.8797 18.2466C15.7578 17.971 15.733 17.8445 15.733 17.4991C15.733 17.218 15.7395 17.1539 15.7817 17.0187C15.8529 16.791 15.9155 16.6596 16.0356 16.4858C16.2722 16.1436 16.6033 15.9058 17.0092 15.7867C17.2146 15.7264 17.2465 15.7232 17.5627 15.7305C17.8116 15.7363 17.8682 15.7448 18.0383 15.8013Z" fill="black"/>
</svg>
