<svg width="35" height="35" viewBox="0 0 35 35" fill="none" xmlns="http://www.w3.org/2000/svg">
<rect width="35" height="35" rx="17.5" fill="white"/>
<path fill-rule="evenodd" clip-rule="evenodd" d="M13.9577 13.0226C13.6251 13.086 13.2693 13.3658 13.1186 13.6823C13.0054 13.9202 12.972 14.1794 13.0237 14.4179C13.0779 14.6676 13.1688 14.849 13.3227 15.0145C14.069 15.8176 15.3852 15.2991 15.3852 14.202C15.3852 13.4368 14.7102 12.8791 13.9577 13.0226ZM19.998 16.2145C19.8839 16.239 19.7357 16.278 19.6685 16.3011C19.2608 16.4416 18.8519 16.7557 18.6303 17.0984L18.5347 17.2463L18.5281 16.7857L18.5214 16.3252L17.5269 16.3188L16.5323 16.3125V19.6562V23H17.5696H18.6069L18.6071 21.2123C18.6073 19.4301 18.618 19.1393 18.6951 18.8389C18.785 18.4887 19.0007 18.2057 19.2719 18.0825C19.5496 17.9562 19.9962 17.9404 20.2775 18.0468C20.5461 18.1484 20.7486 18.4004 20.8373 18.7433C20.9113 19.0293 20.9254 19.4236 20.9254 21.2001L20.9255 22.9756H21.9627H23L22.9998 21.0293C22.9995 19.0138 22.9845 18.5702 22.9006 18.0946C22.7003 16.9598 22.1231 16.3602 21.0793 16.2029C20.7498 16.1532 20.259 16.1585 19.998 16.2145ZM13.1643 19.6565V23H14.2015H15.2388V19.6565V16.313H14.2015H13.1643V19.6565Z" fill="black"/>
</svg>
