<svg width="13" height="13" viewBox="0 0 13 13" fill="none" xmlns="http://www.w3.org/2000/svg">
<path fill-rule="evenodd" clip-rule="evenodd" d="M1.74934 0.62707C1.35018 0.703185 0.923228 1.03889 0.742436 1.41879C0.606571 1.70427 0.566476 2.0152 0.628595 2.30148C0.693613 2.60104 0.80268 2.81876 0.98728 3.01738C1.88289 3.98109 3.46237 3.35885 3.46237 2.04232C3.46237 1.12414 2.65231 0.454897 1.74934 0.62707ZM8.99773 4.4574C8.86081 4.48678 8.68288 4.53355 8.60234 4.56128C8.11309 4.72988 7.62232 5.10677 7.35648 5.51806L7.24179 5.69548L7.23382 5.14285L7.22583 4.59022L6.03236 4.58257L4.83889 4.57493V8.58745V12.6H6.08361H7.32833L7.32857 10.4548C7.3288 8.31612 7.34175 7.96714 7.43424 7.60669C7.54205 7.1864 7.80095 6.84683 8.12633 6.69894C8.45963 6.54744 8.99553 6.52843 9.33304 6.65612C9.65547 6.7781 9.89847 7.08042 10.0049 7.49189C10.0936 7.83518 10.1106 8.30836 10.1106 10.4401L10.1107 12.5707H11.3554H12.6001L12.5998 10.2351C12.5995 7.81658 12.5815 7.28425 12.4808 6.71346C12.2405 5.35169 11.5478 4.63227 10.2953 4.44346C9.89984 4.38387 9.31087 4.39019 8.99773 4.4574ZM0.797204 8.58778V12.6H2.04193H3.28665V8.58778V4.57557H2.04193H0.797204V8.58778Z" fill="white"/>
</svg>
