<svg width="17" height="14" viewBox="0 0 17 14" fill="none" xmlns="http://www.w3.org/2000/svg">
<path fill-rule="evenodd" clip-rule="evenodd" d="M11.1834 0.433987C10.3553 0.563547 9.52068 0.986928 8.94543 1.5693C8.32829 2.19402 8.01911 2.88615 7.95112 3.79507C7.92446 4.15134 7.9626 4.12821 7.52205 4.05518C6.28691 3.8504 5.10654 3.38917 4.03969 2.69444C3.42553 2.29451 2.96111 1.89601 2.26237 1.16943C2.0974 0.997891 2.01626 0.958868 1.82457 0.958868C1.67437 0.958868 1.54563 1.014 1.44185 1.12268C1.35018 1.21872 1.16314 1.57918 1.05382 1.87052C0.741676 2.70244 0.806946 3.77496 1.21719 4.55457L1.29494 4.70234L1.2137 4.72189C1.08854 4.75195 0.907274 4.92152 0.862986 5.04993C0.806182 5.21474 0.845158 5.70765 0.944557 6.08056C1.10723 6.69109 1.42103 7.2338 1.87354 7.68714C2.10231 7.91633 2.11748 7.93985 2.07366 7.99724C1.97201 8.13032 1.95023 8.30313 2.01158 8.49021C2.16994 8.97305 2.52789 9.50467 2.96778 9.91035C3.28895 10.2065 3.52072 10.3679 3.90334 10.5617L4.13573 10.6795L3.91994 10.7729C3.13381 11.1132 2.15171 11.2775 1.1312 11.2396C0.558317 11.2184 0.548589 11.2191 0.434019 11.2928C0.211418 11.4359 0.13101 11.7635 0.26633 11.9759C0.433853 12.2388 1.808 12.8958 2.7833 13.1793C5.36384 13.9292 8.24118 13.6663 10.5084 12.4734C12.4557 11.4487 13.9302 9.8827 14.8069 7.90823C15.2343 6.94569 15.4715 5.94255 15.5449 4.78814L15.5833 4.18436L15.8274 3.93811C16.1866 3.57571 16.4502 3.21557 16.6706 2.78612C16.8926 2.35342 16.9998 1.98012 17.0002 1.63886C17.0005 1.36385 16.925 1.23384 16.7014 1.12389C16.5133 1.03145 16.3794 1.04731 16.0963 1.19549C15.6275 1.44098 15.0962 1.54238 14.6599 1.46967C14.4634 1.43691 14.4103 1.41231 14.2642 1.28653C13.8046 0.890799 13.1916 0.597581 12.5426 0.463032C12.2039 0.392834 11.5376 0.378597 11.1834 0.433987ZM12.2972 1.44943C12.7889 1.53946 13.2746 1.78113 13.6465 2.12068C13.8604 2.31589 14.036 2.3996 14.3445 2.45333C14.6006 2.49795 15.3343 2.50014 15.5354 2.45689C15.7049 2.42044 15.704 2.42731 15.5017 2.71525C15.2953 3.00901 15.0629 3.25707 14.8222 3.44037C14.511 3.6774 14.5069 3.68935 14.493 4.40248C14.4715 5.50579 14.3028 6.34483 13.9051 7.3257C13.1715 9.13534 11.763 10.6688 9.99446 11.5832C8.0533 12.5867 5.59799 12.856 3.45515 12.3004C3.24516 12.246 3.03973 12.1942 2.99866 12.1853C2.8733 12.1582 2.91407 12.1276 3.13145 12.0856C3.50017 12.0143 4.22417 11.7662 4.66908 11.5586C5.1742 11.323 5.87411 10.8865 5.9846 10.7383C6.09352 10.5921 6.09319 10.2968 5.98396 10.1502C5.87285 10.0011 5.76475 9.95957 5.39272 9.92303C4.85908 9.87062 4.42808 9.71701 4.00293 9.42773C3.80467 9.29287 3.42195 8.93269 3.42195 8.88102C3.42195 8.86612 3.55737 8.83628 3.72287 8.8147C4.06694 8.76983 4.22945 8.71342 4.36036 8.59343C4.60026 8.37346 4.52566 7.95942 4.21873 7.80768C4.17308 7.78509 4.04042 7.74336 3.92395 7.71495C3.24207 7.54859 2.59828 7.07224 2.24265 6.47086C2.13807 6.29405 2.01503 6.01122 2.03552 5.9947C2.0403 5.99089 2.15623 6.00684 2.29317 6.0302C2.6749 6.09528 2.94122 6.08781 3.08982 6.00786C3.32232 5.88278 3.42533 5.56563 3.30555 5.34388C3.27803 5.29297 3.14875 5.16856 3.01825 5.06741C2.68011 4.8053 2.65023 4.77778 2.47414 4.56627C2.27608 4.32828 2.08163 3.94259 1.99471 3.61521C1.91895 3.32981 1.90451 2.81449 1.96477 2.54555L2.00159 2.38132L2.25526 2.61957C3.5994 3.8817 5.61569 4.81983 7.5588 5.08718C8.57818 5.22745 8.79932 5.21191 8.97817 4.98749C9.10127 4.83298 9.11319 4.7292 9.04878 4.37163C8.92462 3.68191 9.08786 3.03376 9.52489 2.48155C9.90104 2.00625 10.4702 1.64909 11.091 1.49875C11.5226 1.39423 11.9094 1.3784 12.2972 1.44943Z" fill="white"/>
</svg>
