<svg width="35" height="35" viewBox="0 0 35 35" fill="none" xmlns="http://www.w3.org/2000/svg">
<rect width="35" height="35" rx="17.5" fill="white"/>
<path fill-rule="evenodd" clip-rule="evenodd" d="M20.1527 12.0283C19.4626 12.1363 18.7671 12.4891 18.2877 12.9744C17.7734 13.495 17.5158 14.0718 17.4591 14.8292C17.4369 15.1261 17.4687 15.1068 17.1015 15.046C16.0723 14.8753 15.0886 14.491 14.1996 13.912C13.6878 13.5787 13.3008 13.2467 12.7185 12.6412C12.581 12.4982 12.5134 12.4657 12.3536 12.4657C12.2285 12.4657 12.1212 12.5116 12.0347 12.6022C11.9583 12.6822 11.8025 12.9826 11.7113 13.2254C11.4512 13.9187 11.5056 14.8124 11.8475 15.4621L11.9123 15.5853L11.8446 15.6016C11.7403 15.6266 11.5892 15.7679 11.5523 15.8749C11.505 16.0123 11.5375 16.423 11.6203 16.7338C11.7559 17.2426 12.0174 17.6948 12.3945 18.0726C12.5851 18.2636 12.5977 18.2832 12.5612 18.331C12.4765 18.4419 12.4584 18.5859 12.5095 18.7418C12.6415 19.1442 12.9397 19.5872 13.3063 19.9253C13.574 20.172 13.7671 20.3065 14.086 20.4681L14.2796 20.5662L14.0998 20.6441C13.4447 20.9276 12.6263 21.0646 11.7758 21.033C11.2984 21.0153 11.2903 21.0159 11.1949 21.0773C11.0094 21.1966 10.9423 21.4695 11.0551 21.6465C11.1947 21.8657 12.3398 22.4132 13.1526 22.6494C15.303 23.2743 17.7008 23.0552 19.5901 22.0611C21.2129 21.2073 22.4417 19.9022 23.1722 18.2568C23.5284 17.4547 23.7261 16.6188 23.7873 15.6568L23.8192 15.1536L24.0227 14.9484C24.322 14.6464 24.5417 14.3463 24.7253 13.9884C24.9103 13.6278 24.9997 13.3168 25 13.0324C25.0002 12.8032 24.9374 12.6949 24.751 12.6032C24.5942 12.5262 24.4827 12.5394 24.2468 12.6629C23.8561 12.8675 23.4133 12.952 23.0498 12.8914C22.886 12.8641 22.8417 12.8436 22.72 12.7388C22.337 12.409 21.8262 12.1646 21.2853 12.0525C21.0031 11.994 20.4478 11.9821 20.1527 12.0283ZM21.0808 12.8745C21.4906 12.9495 21.8954 13.1509 22.2053 13.4339C22.3835 13.5966 22.5298 13.6663 22.7869 13.7111C23.0003 13.7483 23.6117 13.7501 23.7793 13.7141C23.9206 13.6837 23.9199 13.6894 23.7513 13.9294C23.5793 14.1742 23.3855 14.3809 23.185 14.5336C22.9257 14.7311 22.9223 14.7411 22.9107 15.3354C22.8928 16.2548 22.7521 16.954 22.4208 17.7714C21.8094 19.2794 20.6356 20.5573 19.1619 21.3193C17.5443 22.1556 15.4982 22.38 13.7125 21.917C13.5375 21.8716 13.3663 21.8284 13.3321 21.8211C13.2276 21.7985 13.2616 21.773 13.4427 21.738C13.75 21.6786 14.3533 21.4718 14.7241 21.2988C15.145 21.1025 15.7283 20.7388 15.8203 20.6152C15.9111 20.4934 15.9108 20.2473 15.8198 20.1252C15.7272 20.0009 15.6371 19.9663 15.3271 19.9358C14.8824 19.8922 14.5232 19.7642 14.1689 19.5231C14.0037 19.4107 13.6848 19.1106 13.6848 19.0675C13.6848 19.0551 13.7976 19.0302 13.9356 19.0122C14.2223 18.9748 14.3577 18.9278 14.4668 18.8278C14.6667 18.6445 14.6046 18.2995 14.3488 18.173C14.3107 18.1542 14.2002 18.1194 14.1031 18.0958C13.5349 17.9571 12.9984 17.5602 12.702 17.059C12.6149 16.9117 12.5124 16.676 12.5294 16.6622C12.5334 16.6591 12.63 16.6723 12.7441 16.6918C13.0623 16.746 13.2842 16.7398 13.408 16.6732C13.6018 16.569 13.6876 16.3047 13.5878 16.1199C13.5649 16.0775 13.4571 15.9738 13.3484 15.8895C13.0666 15.6711 13.0417 15.6481 12.895 15.4719C12.7299 15.2735 12.5679 14.9521 12.4954 14.6793C12.4323 14.4415 12.4203 14.0121 12.4705 13.7879L12.5012 13.6511L12.7126 13.8496C13.8327 14.9014 15.5129 15.6832 17.1322 15.906C17.9817 16.0229 18.1659 16.0099 18.315 15.8229C18.4176 15.6941 18.4275 15.6076 18.3738 15.3097C18.2704 14.7349 18.4064 14.1948 18.7706 13.7346C19.084 13.3385 19.5583 13.0409 20.0756 12.9156C20.4353 12.8285 20.7577 12.8153 21.0808 12.8745Z" fill="black"/>
</svg>
